<svg width="85" height="84" viewBox="0 0 85 84" fill="none" xmlns="http://www.w3.org/2000/svg">
<rect x="0.5" width="84" height="84" rx="16" fill="#BE932A"/>
<g clip-path="url(#clip0_279_642)">
<path d="M56.3333 22.0283H29.6667C25.985 22.0283 23 25.0117 23 28.695V35.3617C23 39.0433 25.985 42.0283 29.6667 42.0283H31.5133C31.7867 40.8783 32.3717 39.8017 33.2567 38.9183C34.3133 37.8617 35.685 37.2333 37.1183 37.065L37.145 26.765C37.1467 26.0517 37.7267 25.4733 38.44 25.4733H41.6717C42.3933 25.4733 42.975 26.0633 42.9667 26.7833C42.9583 27.51 42.3533 28.0883 41.6267 28.0633L39.7833 28V30.75L41.7 30.8167C42.3983 30.84 42.95 31.4133 42.95 32.1117V32.185C42.95 32.9183 42.3417 33.505 41.61 33.48L39.7833 33.4167V36.0017H41.655C42.37 36.0017 42.95 36.5817 42.95 37.2967V38.4317L52.8417 42.0283H56.3333C60.015 42.0283 63 39.0433 63 35.3617V28.695C63 25.0117 60.015 22.0283 56.3333 22.0283ZM35.4033 35.3C35.085 37.2583 33.3783 38.68 31.3433 38.68C30.2367 38.68 29.1767 38.355 28.2783 37.76C27.6317 37.3317 27.5317 36.4233 28.08 35.875C28.4733 35.4833 29.085 35.4033 29.56 35.69C30.0867 36.0083 30.7067 36.185 31.3417 36.185C32.3483 36.185 33.06 35.5117 33.1683 34.86C33.3167 33.9433 32.165 33.405 31.8067 33.2617C30.2817 32.6433 28.8883 31.9617 28.885 31.9617C27.7317 31.155 27.1733 29.91 27.35 28.5467C27.535 27.1383 28.4733 25.99 29.8017 25.5533C31.2 25.0917 32.4733 25.4267 33.3883 25.8917C34.0633 26.2333 34.2517 27.1133 33.7883 27.7133C33.45 28.1517 32.8567 28.31 32.35 28.0883C31.84 27.865 31.1667 27.7117 30.455 27.9417C29.7683 28.1683 29.5933 28.6867 29.5967 28.9033C29.605 29.64 30.155 29.8533 30.3183 29.9283C30.7883 30.1417 31.6617 30.5417 32.595 30.92C35.03 31.905 35.6417 33.83 35.4033 35.3ZM51.285 37.3417C51.285 38.075 50.6917 38.67 49.9583 38.6733L46.8117 38.6867C46.0733 38.69 45.475 38.0933 45.475 37.355V26.6883C45.475 25.9533 46.0717 25.3567 46.8067 25.3567C47.5417 25.3567 48.14 25.955 48.1383 26.6917L48.13 30.3333L48.1167 36H49.9533C50.6883 36 51.285 36.5967 51.285 37.3317V37.3417ZM58.8333 37.3367C58.8333 38.0717 58.2367 38.6683 57.5017 38.6683H54.3317C53.5967 38.6683 53 38.0717 53 37.3367V26.665C53 25.93 53.5967 25.3333 54.3317 25.3333H54.335C55.07 25.3333 55.6667 25.93 55.6667 26.665V36.0017H57.5033C58.2383 36.0017 58.835 36.5983 58.835 37.3333L58.8333 37.3367ZM49.7017 53.0066L54.1783 48.53C54.5817 48.1267 54.75 47.545 54.6267 46.99C54.5033 46.4333 54.1033 45.9783 53.5667 45.7833L39.015 40.5133C37.82 40.105 36.5233 40.4067 35.63 41.3C34.7367 42.1917 34.4367 43.4883 34.845 44.6833L34.855 44.7133L40.115 59.2366C40.31 59.7716 40.8583 60.3116 41.6817 60.335C42.1183 60.3483 42.545 60.1616 42.86 59.8466L47.3417 55.365L53.485 61.5133C53.81 61.8383 54.2383 62.0016 54.665 62.0016C55.0917 62.0016 55.5183 61.8383 55.8433 61.5133C56.495 60.8633 56.495 59.8083 55.8433 59.1567L49.6983 53.0066H49.7017ZM42.3583 55.635L38.0367 43.7033L49.9683 48.025L42.3583 55.635Z" fill="#FFFFF5"/>
</g>
<defs>
<clipPath id="clip0_279_642">
<rect width="40" height="40" fill="white" transform="translate(23 22)"/>
</clipPath>
</defs>
</svg>
