<svg width="85" height="84" viewBox="0 0 85 84" fill="none" xmlns="http://www.w3.org/2000/svg">
<rect x="0.5" width="84" height="84" rx="16" fill="#BE932A"/>
<g clip-path="url(#clip0_279_653)">
<path d="M51.7667 39.1534C52.58 39.9484 53.6233 40.345 54.6667 40.345C55.71 40.345 56.7533 39.9484 57.5667 39.1534L60.5583 36.2267C63.8067 32.9767 63.8067 27.69 60.5583 24.4417C58.9833 22.8684 56.8917 22.0017 54.6667 22.0017C52.4417 22.0017 50.3467 22.8684 48.775 24.4417C45.5267 27.6917 45.5267 32.9784 48.7883 36.24L51.7667 39.155V39.1534ZM51.1317 26.7967C52.075 25.8534 53.33 25.3334 54.6667 25.3334C56.0033 25.3334 57.2583 25.8534 58.2017 26.7984C60.1517 28.7467 60.1517 31.92 58.215 33.8567L55.2367 36.77C54.9183 37.0834 54.4167 37.0817 54.0967 36.77L51.1317 33.87C49.1817 31.92 49.1817 28.7467 51.1317 26.7967ZM56.335 29.9784C56.335 30.8984 55.5883 31.645 54.6683 31.645C53.7483 31.645 53.0017 30.8984 53.0017 29.9784C53.0017 29.0584 53.7483 28.3117 54.6683 28.3117C55.5883 28.3117 56.335 29.0584 56.335 29.9784ZM63 52C63 55.6767 60.01 58.6667 56.3333 58.6667H44.6667C43.745 58.6667 43 57.92 43 57C43 56.08 43.745 55.3334 44.6667 55.3334H56.3333C58.1717 55.3334 59.6667 53.8384 59.6667 52C59.6667 50.1617 58.1717 48.6667 56.3333 48.6667H43C39.3233 48.6667 36.3333 45.6767 36.3333 42C36.3333 38.3234 39.3233 35.3334 43 35.3334C43.9217 35.3334 44.6667 36.08 44.6667 37C44.6667 37.92 43.9217 38.6667 43 38.6667C41.1617 38.6667 39.6667 40.1617 39.6667 42C39.6667 43.8384 41.1617 45.3334 43 45.3334H56.3333C60.01 45.3334 63 48.3234 63 52ZM38.1933 51.2434C37.1867 48.665 34.75 47 31.9817 47H24.6667C23.745 47 23 47.7467 23 48.6667C23 49.5867 23.745 50.3334 24.6667 50.3334H28V55.3334H24.6667C23.745 55.3334 23 56.08 23 57C23 57.92 23.745 58.6667 24.6667 58.6667H26.3333V59.5C26.3333 60.88 27.4533 62 28.8333 62C30.2133 62 31.3333 60.88 31.3333 59.5C31.3333 60.88 32.4533 62 33.8333 62C35.2133 62 36.3333 60.88 36.3333 59.5V58.6667C38.4983 58.6667 39.6667 56.95 39.6667 55.3334C39.6667 55.125 39.6283 54.92 39.5533 54.7284L38.195 51.245L38.1933 51.2434ZM31.3333 55.3334V50.3334H31.9833C33.3667 50.3334 34.5867 51.1667 35.0883 52.455L36.2117 55.3334H31.3333Z" fill="#FFFFF5"/>
</g>
<defs>
<clipPath id="clip0_279_653">
<rect width="40" height="40" fill="white" transform="translate(23 22)"/>
</clipPath>
</defs>
</svg>
