<svg width="85" height="84" viewBox="0 0 85 84" fill="none" xmlns="http://www.w3.org/2000/svg">
<rect x="0.5" width="84" height="84" rx="16" fill="#BE932A"/>
<g clip-path="url(#clip0_279_664)">
<path d="M63 42C63 39.305 61.82 36.7733 59.8 35.0417C60.0033 32.39 59.0483 29.765 57.1417 27.8583C55.2367 25.9517 52.6033 24.9967 49.9583 25.2C48.225 23.18 45.6933 22 42.9983 22C40.3033 22 37.7717 23.18 36.0383 25.2C33.3933 24.9967 30.7617 25.9517 28.855 27.8583C26.9483 29.7667 25.9933 32.39 26.1967 35.0417C24.1767 36.7733 22.9967 39.305 22.9967 42C22.9967 44.695 24.1767 47.2267 26.1967 48.9583C25.9933 51.61 26.9483 54.235 28.855 56.1417C30.7617 58.0467 33.3933 58.9983 36.0383 58.8C37.7717 60.82 40.3033 62 42.9983 62C45.6933 62 48.225 60.82 49.9583 58.8C52.605 59.0017 55.2367 58.0467 57.1417 56.1417C59.0483 54.2333 60.0033 51.61 59.8 48.9583C61.82 47.2267 63 44.695 63 42ZM57.09 46.84L56.1733 47.4567L56.385 48.54C56.7567 50.4483 56.1583 52.41 54.785 53.7833C53.4117 55.1567 51.4533 55.755 49.54 55.3833L48.4583 55.1733L47.8417 56.0883C46.7533 57.7017 44.9433 58.665 43.0017 58.665C41.06 58.665 39.25 57.7017 38.1617 56.0883L37.545 55.1733L36.4633 55.3833C34.5483 55.7533 32.5917 55.155 31.2183 53.7833C29.845 52.4083 29.2467 50.4483 29.6183 48.54L29.83 47.4567L28.9133 46.84C27.3 45.7517 26.3367 43.9417 26.3367 42C26.3367 40.0583 27.3 38.2483 28.9133 37.16L29.83 36.5433L29.6183 35.46C29.2467 33.5517 29.845 31.59 31.2183 30.2167C32.5917 28.8433 34.5517 28.25 36.4633 28.6167L37.545 28.8267L38.1617 27.9117C39.25 26.2983 41.06 25.335 43.0017 25.335C44.9433 25.335 46.7533 26.2983 47.8417 27.9117L48.4583 28.8267L49.54 28.6167C51.4517 28.2467 53.4117 28.8433 54.785 30.2167C56.1583 31.5917 56.7567 33.5517 56.385 35.46L56.1733 36.5433L57.09 37.16C58.7033 38.2483 59.6667 40.0583 59.6667 42C59.6667 43.9417 58.7033 45.7517 57.09 46.84ZM38 38.6667C37.08 38.6667 36.3333 37.92 36.3333 37C36.3333 36.08 37.08 35.3333 38 35.3333C38.92 35.3333 39.6667 36.08 39.6667 37C39.6667 37.92 38.92 38.6667 38 38.6667ZM49.6667 47C49.6667 47.92 48.92 48.6667 48 48.6667C47.08 48.6667 46.3333 47.92 46.3333 47C46.3333 46.08 47.08 45.3333 48 45.3333C48.92 45.3333 49.6667 46.08 49.6667 47ZM48.9433 35.3333L40.9433 48.6667H37.0567L45.0567 35.3333H48.9433Z" fill="#FFFFF5"/>
</g>
<defs>
<clipPath id="clip0_279_664">
<rect width="40" height="40" fill="white" transform="translate(23 22)"/>
</clipPath>
</defs>
</svg>
