<svg width="85" height="85" viewBox="0 0 85 85" fill="none" xmlns="http://www.w3.org/2000/svg">
<rect x="0.5" y="0.5" width="84" height="84" rx="16" fill="#BE932A"/>
<g clip-path="url(#clip0_279_682)">
<path d="M35.1567 30.49C34.7117 30.1134 34.55 29.5 34.7517 28.9534C34.9517 28.4067 35.4717 28.0434 36.055 28.0434H40.2233L41.6983 23.905C41.9 23.3617 42.42 23.0017 43 23.0017C43.58 23.0017 44.1 23.3617 44.3017 23.905L45.7767 28.0434H49.945C50.5283 28.0434 51.05 28.4084 51.25 28.9567C51.45 29.505 51.2867 30.12 50.84 30.495L47.555 33.1717L48.9133 37.3117C49.1 37.8717 48.91 38.4884 48.4433 38.8484C47.975 39.2084 47.3317 39.2334 46.8367 38.9117L43.0117 36.42L39.25 38.9367C39.0167 39.0934 38.7467 39.1717 38.4767 39.1717C38.1833 39.1717 37.89 39.0784 37.6433 38.895C37.1717 38.5417 36.975 37.9284 37.1517 37.3667L38.4583 33.1784L35.1567 30.49ZM58 28C55.2433 28 53 30.2434 53 33V41.64C52.5567 41.4834 52.0967 41.3667 51.6133 41.34C50.2917 41.27 49.0017 41.7167 47.9917 42.6217L42.9767 47.2367C42.8383 47.0967 42.71 46.95 42.565 46.815L37.9917 42.6067C36.9967 41.7167 35.7017 41.2717 34.3867 41.34C33.9033 41.3667 33.4433 41.4834 33 41.64V33C33 30.2434 30.7567 28 28 28C25.2433 28 23 30.2434 23 33V49.835C23 53.3967 24.3867 56.745 26.905 59.2634L30.155 62.5134C30.48 62.8384 30.9067 63.0017 31.3333 63.0017C31.76 63.0017 32.1867 62.8384 32.5117 62.5134C33.1633 61.8617 33.1633 60.8067 32.5117 60.1567L29.2617 56.9067C27.3733 55.0184 26.3333 52.5067 26.3333 49.835V33C26.3333 32.0817 27.08 31.3334 28 31.3334C28.92 31.3334 29.6667 32.0817 29.6667 33C29.6667 33 29.6583 46.46 29.6667 46.5267C29.7167 47.6184 30.1417 48.7084 30.91 49.6217L35.27 54.1567C35.9083 54.8184 36.9617 54.8417 37.6267 54.2017C38.2883 53.5634 38.31 52.5084 37.6717 51.845L33.3867 47.395C32.86 46.7667 32.875 45.8317 33.4233 45.22C33.7183 44.89 34.125 44.695 34.5683 44.67C35.0067 44.64 35.4367 44.795 35.7517 45.0767L40.3067 49.27C42.0167 50.8434 42.9983 53.08 42.9983 55.4034V61.335C42.9983 62.255 43.7433 63.0017 44.665 63.0017C45.5867 63.0017 46.3317 62.255 46.3317 61.335V55.4034C46.3317 53.4834 45.8417 51.6117 44.9583 49.9434L50.23 45.0917C50.56 44.795 50.9867 44.64 51.43 44.67C51.8733 44.695 52.28 44.89 52.575 45.22C52.8417 45.5167 52.9767 45.89 53 46.2584V46.3334C53 46.3334 53 46.335 53 46.3367C53.005 46.6984 52.9033 47.0484 52.6867 47.31L48.465 51.7C47.8267 52.3634 47.8483 53.4184 48.51 54.0567C48.8333 54.3684 49.2483 54.5217 49.665 54.5217C50.1033 54.5217 50.5383 54.35 50.8667 54.01L55.1633 49.535C55.9133 48.6417 56.3067 47.5434 56.3317 46.44C56.335 46.4017 56.3317 32.9984 56.3317 32.9984C56.3317 32.08 57.0783 31.3317 57.9983 31.3317C58.9183 31.3317 59.665 32.08 59.665 32.9984V49.8334C59.665 52.505 58.625 55.015 56.7367 56.905L53.4867 60.155C52.835 60.805 52.835 61.86 53.4867 62.5117C53.8117 62.8367 54.2383 63 54.665 63C55.0917 63 55.5183 62.8367 55.8433 62.5117L59.0933 59.2617C61.6117 56.7434 62.9983 53.395 62.9983 49.8334V33C62.9983 30.2434 60.7567 28 58 28Z" fill="#FFFFF5"/>
</g>
<defs>
<clipPath id="clip0_279_682">
<rect width="40" height="40" fill="white" transform="translate(23 23)"/>
</clipPath>
</defs>
</svg>
