<svg width="24" height="24" viewBox="0 0 24 24" fill="none" xmlns="http://www.w3.org/2000/svg">
<path d="M22 21.1667C22 21.6267 21.6275 22 21.1667 22H2.83333C2.37333 22 2 21.6267 2 21.1667C2 20.7067 2.37333 20.3333 2.83333 20.3333H3.66667V15.3333C3.66667 14.8733 4.04 14.5 4.5 14.5C4.96 14.5 5.33333 14.8733 5.33333 15.3333V20.3333H18.6667V15.3333C18.6667 14.8733 19.0392 14.5 19.5 14.5C19.9608 14.5 20.3333 14.8733 20.3333 15.3333V20.3333H21.1667C21.6275 20.3333 22 20.7067 22 21.1667ZM3.66667 12V6.16667C3.66667 3.86917 5.53583 2 7.83333 2H16.1667C18.4642 2 20.3333 3.86917 20.3333 6.16667V12C20.3333 12.46 19.9608 12.8333 19.5 12.8333H4.5C4.04 12.8333 3.66667 12.46 3.66667 12ZM16.1667 3.66667H12.8333V11.1667H18.6667V6.16667C18.6667 4.78833 17.545 3.66667 16.1667 3.66667ZM5.33333 11.1667H11.1667V3.66667H7.83333C6.455 3.66667 5.33333 4.78833 5.33333 6.16667V11.1667Z" fill="#D1D1D6"/>
</svg>
