<svg width="24" height="24" viewBox="0 0 24 24" fill="none" xmlns="http://www.w3.org/2000/svg">
<path d="M20.5695 16.6439L13.5359 11.6474C15.5746 9.97392 16.5044 9.20707 15.9878 6.94592C15.6657 5.53887 14.5498 4.42219 13.1428 4.10094C11.9736 3.83451 10.7735 4.10094 9.85375 4.83612C8.93322 5.56976 8.40578 6.66559 8.40578 7.84096H9.95028C9.95028 7.13744 10.2661 6.48256 10.8168 6.04315C11.3759 5.59679 12.0794 5.44157 12.7999 5.60683C13.6193 5.79371 14.2958 6.47021 14.4826 7.28957C14.7784 8.58541 14.5969 8.7777 12.5481 10.4604L3.94369 16.6593C3.35292 17.1095 3 17.8223 3 18.5645C3 19.885 4.07498 20.96 5.39553 20.96H19.1386C20.4591 20.96 21.5341 19.885 21.5341 18.5645C21.5341 17.8223 21.1812 17.1095 20.5695 16.6439ZM19.1386 19.4155H5.39553C4.926 19.4155 4.54451 19.034 4.54451 18.5645C4.54451 18.3011 4.67038 18.0478 4.85881 17.9034L12.267 12.6405L19.6536 17.888C19.8637 18.0478 19.9896 18.3011 19.9896 18.5645C19.9896 19.034 19.6081 19.4155 19.1386 19.4155Z" fill="#D1D1D6"/>
</svg>
