<svg width="24" height="24" viewBox="0 0 24 24" fill="none" xmlns="http://www.w3.org/2000/svg">
<path d="M12.4996 9.91634C13.3744 9.91634 14.0829 10.6248 14.0829 11.4996C14.0829 12.3744 13.3744 13.0829 12.4996 13.0829C11.6248 13.0829 10.9163 12.3744 10.9163 11.4996C10.9163 10.6248 11.6248 9.91634 12.4996 9.91634ZM9.72889 11.5059C9.73205 11.0816 9.56898 10.6826 9.26816 10.3802L6.46894 7.58102L5.34957 8.70039L7.36428 10.708H3V12.2912H7.34765L5.34799 14.2988L6.47052 15.4166L9.26895 12.6055C9.56185 12.311 9.72572 11.9208 9.72889 11.5051V11.5059ZM12.5075 8.72968C12.9247 8.72968 13.3245 8.56423 13.619 8.26816L16.4182 5.46894L15.2988 4.34957L13.2912 6.36428V2H11.708V6.34765L9.6996 4.34799L8.58339 5.46973L11.3929 8.26657C11.6874 8.56185 12.0911 8.72809 12.5075 8.72809V8.72968ZM11.3882 14.7303L8.57627 17.5295L9.69247 18.652L11.7032 16.6413L11.708 21L13.2912 20.9984L13.2865 16.6436L15.2925 18.6496L16.4119 17.5303L13.6118 14.7295C13.0165 14.1373 11.9835 14.1381 11.3882 14.7303ZM22 12.292L21.9984 10.7088L17.6436 10.7143L19.6496 8.7083L18.5303 7.58893L15.7303 10.3889C15.4334 10.6858 15.2703 11.0816 15.2703 11.5012C15.2703 11.9208 15.4334 12.315 15.7295 12.6126L18.5287 15.4245L19.6512 14.3083L17.6405 12.2976L22 12.292Z" fill="#D1D1D6"/>
</svg>
