<svg width="24" height="24" viewBox="0 0 24 24" fill="none" xmlns="http://www.w3.org/2000/svg">
<path fill-rule="evenodd" clip-rule="evenodd" d="M12 2C17.523 2 22 6.477 22 12C22 17.523 17.523 22 12 22C6.477 22 2 17.523 2 12C2 6.477 6.477 2 12 2ZM12 4C9.87827 4 7.84344 4.84285 6.34315 6.34315C4.84285 7.84344 4 9.87827 4 12C4 14.1217 4.84285 16.1566 6.34315 17.6569C7.84344 19.1571 9.87827 20 12 20C14.1217 20 16.1566 19.1571 17.6569 17.6569C19.1571 16.1566 20 14.1217 20 12C20 9.87827 19.1571 7.84344 17.6569 6.34315C16.1566 4.84285 14.1217 4 12 4ZM13.5 7C14.4125 6.99868 15.2894 7.35379 15.9439 7.98964C16.5984 8.62549 16.9787 9.49181 17.0037 10.404C17.0288 11.3161 16.6966 12.202 16.078 12.8728C15.4593 13.5436 14.6032 13.9463 13.692 13.995L13.5 14H11V16C10.9997 16.2549 10.9021 16.5 10.7272 16.6854C10.5522 16.8707 10.313 16.9822 10.0586 16.9972C9.80416 17.0121 9.55362 16.9293 9.35817 16.7657C9.16271 16.6021 9.0371 16.3701 9.007 16.117L9 16V9C8.99984 8.49542 9.19041 8.00943 9.5335 7.63945C9.87659 7.26947 10.3468 7.04284 10.85 7.005L11 7H13.5ZM13.5 9H11V12H13.5C13.8852 11.9998 14.2556 11.8514 14.5344 11.5856C14.8132 11.3198 14.979 10.9569 14.9975 10.5721C15.016 10.1873 14.8858 9.81017 14.6338 9.5188C14.3818 9.22743 14.0274 9.04417 13.644 9.007L13.5 9Z" fill="#D1D1D6"/>
</svg>
