<svg width="24" height="24" viewBox="0 0 24 24" fill="none" xmlns="http://www.w3.org/2000/svg">
<path d="M17.5082 3.87268L12.0264 2.04484C11.8469 1.98505 11.6529 1.98505 11.4734 2.04484L5.99158 3.87268C5.12001 4.1622 4.36184 4.71902 3.8248 5.46403C3.28776 6.20904 2.99916 7.10435 3 8.02274V12.5001C3 19.1176 11.0499 22.7724 11.3946 22.9246C11.5065 22.9743 11.6275 23 11.7499 23C11.8722 23 11.9933 22.9743 12.1051 22.9246C12.4499 22.7724 20.4997 19.1176 20.4997 12.5001V8.02274C20.5006 7.10435 20.212 6.20904 19.6749 5.46403C19.1379 4.71902 18.3797 4.1622 17.5082 3.87268ZM18.7498 12.5001C18.7498 17.2731 13.2207 20.4038 11.7499 21.1528C10.2773 20.4064 4.74997 17.2854 4.74997 12.5001V8.02274C4.75003 7.47174 4.92346 6.93473 5.24571 6.48779C5.56796 6.04085 6.02268 5.70665 6.54545 5.53253L11.7499 3.79743L16.9543 5.53253C17.4771 5.70665 17.9318 6.04085 18.254 6.48779C18.5763 6.93473 18.7497 7.47174 18.7498 8.02274V12.5001Z" fill="#D1D1D6"/>
<path d="M15.3 8.3L11.112 12.5L8.86798 10.16C8.77792 10.0615 8.66907 9.98209 8.54784 9.92635C8.4266 9.8706 8.29544 9.83968 8.16207 9.83541C8.0287 9.83114 7.89583 9.8536 7.77128 9.90148C7.64673 9.94935 7.53302 10.0217 7.43685 10.1142C7.34068 10.2067 7.26399 10.3175 7.21131 10.4401C7.15862 10.5627 7.13101 10.6946 7.13009 10.828C7.12917 10.9614 7.15496 11.0937 7.20595 11.217C7.25694 11.3403 7.33209 11.4522 7.42698 11.546L9.73298 13.946C9.90495 14.1318 10.1128 14.2807 10.344 14.3838C10.5752 14.487 10.8249 14.5421 11.078 14.546H11.111C11.359 14.5468 11.6048 14.4984 11.834 14.4034C12.0631 14.3085 12.2712 14.169 12.446 13.993L16.718 9.721C16.8113 9.62789 16.8853 9.51732 16.9359 9.39559C16.9865 9.27387 17.0126 9.14337 17.0127 9.01156C17.0129 8.87975 16.987 8.7492 16.9367 8.62736C16.8864 8.50553 16.8126 8.3948 16.7195 8.3015C16.6264 8.20819 16.5158 8.13414 16.3941 8.08357C16.2723 8.033 16.1419 8.0069 16.01 8.00676C15.8782 8.00662 15.7477 8.03245 15.6258 8.08276C15.504 8.13307 15.3933 8.20689 15.3 8.3Z" fill="#D1D1D6"/>
</svg>
