<svg width="24" height="24" viewBox="0 0 24 24" fill="none" xmlns="http://www.w3.org/2000/svg">
<path d="M21.5939 14.8289C20.214 14.8289 18.9837 15.1715 17.9606 15.7768C17.7201 13.8786 16.845 12.0256 15.5442 10.7248L15.2641 10.4447L14.984 10.7248C13.6832 12.0256 12.8081 13.8786 12.5668 15.776C11.5437 15.1707 10.3134 14.8289 8.93345 14.8289H8.53783V15.2245C8.53783 19.2377 10.9543 21.7886 14.8677 21.95H15.6589C19.5723 21.7886 21.9888 19.2377 21.9888 15.2245V14.8289H21.5939ZM15.2641 11.5817C16.3781 12.8366 17.0918 14.5559 17.2176 16.2832C16.3235 17.0072 15.6557 17.978 15.2641 19.1253C14.8724 17.978 14.2046 17.0072 13.3105 16.2832C13.4363 14.5567 14.15 12.8374 15.2641 11.5817ZM9.33935 15.632C12.4821 15.8061 14.6841 18.0073 14.8582 21.1501C11.5208 20.9989 9.49047 18.9686 9.33935 15.632ZM15.6708 21.1501C15.8449 18.0073 18.0461 15.8061 21.1896 15.632C21.0385 18.9686 19.0082 20.9989 15.6708 21.1501ZM7.35177 8.49906C8.44209 8.49906 9.32985 7.6113 9.32985 6.52098C9.32985 5.55884 7.94124 3.74771 7.66273 3.39403L7.35177 3L7.04082 3.39403C6.76231 3.74771 5.37369 5.55805 5.37369 6.52098C5.37369 7.6113 6.26146 8.49906 7.35177 8.49906ZM7.35177 4.29604C7.91909 5.07778 8.53862 6.09372 8.53862 6.52098C8.53862 7.17533 8.00612 7.70783 7.35177 7.70783C6.69743 7.70783 6.16493 7.17533 6.16493 6.52098C6.16493 6.09372 6.78446 5.07778 7.35177 4.29604ZM9.11701 21.1588C9.39394 21.4476 9.69698 21.7103 10.0214 21.95H3V11.2684C3 10.1781 3.88776 9.29029 4.97808 9.29029H9.72547C10.8158 9.29029 11.7035 10.1781 11.7035 11.2684V13.6745C11.4464 13.5922 11.1821 13.5218 10.9123 13.4632V11.2684C10.9123 10.614 10.3798 10.0815 9.72547 10.0815H4.97808C4.32373 10.0815 3.79123 10.614 3.79123 11.2684V21.1588H9.11701Z" fill="#D1D1D6"/>
</svg>
