<svg width="24" height="24" viewBox="0 0 24 24" fill="none" xmlns="http://www.w3.org/2000/svg">
<path d="M6.74996 16.5C7.16471 16.5 7.49996 16.1648 7.49996 15.75V13.5H16.5V15.75C16.5 16.1648 16.8352 16.5 17.25 16.5C17.6647 16.5 18 16.1648 18 15.75V6.75C18 5.5095 19.0095 4.5 20.25 4.5C20.6647 4.5 21 4.16475 21 3.75C21 3.33525 20.6647 3 20.25 3C18.1822 3 16.5 4.68225 16.5 6.75V7.5H7.49996V6.75C7.49996 5.5095 8.50946 4.5 9.74996 4.5C10.1647 4.5 10.5 4.16475 10.5 3.75C10.5 3.33525 10.1647 3 9.74996 3C7.68221 3 5.99996 4.68225 5.99996 6.75V15.75C5.99996 16.1648 6.33522 16.5 6.74996 16.5ZM16.5 9V12H7.49996V9H16.5ZM20.751 20.2335C20.2012 20.7278 19.4902 21 18.75 21C17.904 21 17.0835 20.646 16.5 20.0805C15.9165 20.646 15.096 21 14.25 21C13.404 21 12.5835 20.646 12 20.0805C11.4165 20.646 10.596 21 9.74996 21C8.90396 21 8.08347 20.646 7.49996 20.0805C6.91647 20.646 6.09596 21 5.24996 21C4.50971 21 3.79871 20.7278 3.24896 20.2335C2.94071 19.9568 2.91521 19.482 3.19196 19.1745C3.47096 18.8663 3.94421 18.843 4.25096 19.1175C4.52546 19.3643 4.88096 19.5007 5.24996 19.5007C5.91297 19.5007 6.58797 19.0658 6.78971 18.5093C6.86021 18.303 7.08972 18.0015 7.48197 18.0015C7.87421 18.0015 8.14271 18.3135 8.20947 18.5093C8.41196 19.0658 9.08621 19.5007 9.74921 19.5007C10.4122 19.5007 11.0872 19.0658 11.289 18.5093C11.352 18.3248 11.5867 18.0015 11.9617 18.0015C12.36 18.0015 12.639 18.3023 12.7095 18.5093C12.912 19.0658 13.5862 19.5007 14.2492 19.5007C14.9122 19.5007 15.5872 19.0658 15.789 18.5093C15.8595 18.303 16.0995 18.0007 16.4992 18.0007C16.899 18.0007 17.1315 18.3158 17.2087 18.5093C17.4277 19.059 18.0855 19.5007 18.7485 19.5007C19.1175 19.5007 19.473 19.3643 19.7475 19.1175C20.0542 18.8422 20.5275 18.8647 20.8065 19.1745C21.0832 19.482 21.0577 19.9568 20.7495 20.2335H20.751Z" fill="#D1D1D6"/>
</svg>
