<svg width="24" height="24" viewBox="0 0 24 24" fill="none" xmlns="http://www.w3.org/2000/svg">
<path d="M18.45 21V20.575M6.55 21V20.575M12.5 20.15V14.2M12.5 4V10.8M15.05 9.1V10.8M21 11.65V13.35C21 16.5554 21 18.1584 20.0038 19.1538C19.0076 20.1491 17.4054 20.15 14.2 20.15H10.8C7.59465 20.15 5.99155 20.15 4.9962 19.1538C4.00085 18.1576 4 16.5554 4 13.35V10.8C4 7.59465 4 5.99155 4.9962 4.9962C5.9924 4.00085 7.59465 4 10.8 4H14.2C17.4054 4 19.0084 4 20.0038 4.9962C20.6914 5.683 20.9048 6.6588 20.9703 8.25M4 9.1H12.5M4 15.05H21M15.05 17.6H16.75M8.25 17.6H9.95" stroke="#D1D1D6" stroke-linecap="round"/>
</svg>
