<svg width="24" height="24" viewBox="0 0 24 24" fill="none" xmlns="http://www.w3.org/2000/svg">
<path d="M21.4063 12.3036C20.9558 11.793 20.3066 11.5001 19.6257 11.5001H4.5834V5.54839C4.5834 4.8826 4.88425 4.22394 5.44873 3.87007C6.31089 3.32936 7.36385 3.59536 7.90854 4.3221L8.1136 4.59523L7.7312 6.78892C7.68529 7.05333 7.73991 7.32566 7.88479 7.55128C8.22127 8.07536 8.93221 8.20361 9.43019 7.82995L12.2851 5.6893C12.734 5.35285 12.8472 4.72585 12.544 4.25323L12.5337 4.2366C12.346 3.94369 12.027 3.76003 11.6794 3.74419L9.37873 3.64207L9.24098 3.4584C8.72004 2.76412 7.9798 2.23766 7.12793 2.06904C4.93175 1.63442 3 3.31115 3 5.43043C3 5.43043 3.00317 9.9508 3.00475 11.7027C3.00475 12.1587 3.03404 12.6092 3.09025 13.062C3.17022 13.7025 3.27789 14.5662 3.27789 14.5662C3.4766 16.1535 4.24614 17.5484 5.36402 18.5538L5.00221 20.0183C4.89692 20.4427 5.1558 20.8718 5.58015 20.977C5.64428 20.9929 5.70762 21 5.77095 21C6.12643 21 6.44944 20.7585 6.5389 20.3983L6.7582 19.5109C7.6362 19.9574 8.62662 20.2083 9.6685 20.2083H15.5405C16.5088 20.2083 17.4327 19.9922 18.264 19.6027L18.4611 20.3983C18.5498 20.7585 18.8736 21 19.2291 21C19.2924 21 19.3557 20.9921 19.4199 20.977C19.8442 20.8718 20.1031 20.4427 19.9978 20.0183L19.6732 18.7042C20.8845 17.6893 21.7245 16.2342 21.9327 14.567L21.9818 14.1704C22.0657 13.4943 21.8567 12.815 21.4055 12.3044L21.4063 12.3036ZM20.4111 13.9732L20.362 14.3699C20.0588 16.7955 17.9861 18.625 15.5413 18.625H9.66929C7.22451 18.625 5.15263 16.7955 4.84941 14.3699L4.6887 13.0834H19.6257C19.8561 13.0834 20.0675 13.1784 20.2195 13.351C20.3715 13.5244 20.4396 13.7444 20.4111 13.9732Z" fill="#D1D1D6"/>
</svg>
