<svg width="24" height="24" viewBox="0 0 24 24" fill="none" xmlns="http://www.w3.org/2000/svg">
<path d="M17.25 4H6.75C4.68225 4 3 5.68225 3 7.75V18.25C3 18.6648 3.336 19 3.75 19C4.164 19 4.5 18.6648 4.5 18.25V16.75H19.5V18.25C19.5 18.6648 19.8352 19 20.25 19C20.6647 19 21 18.6648 21 18.25V7.75C21 5.68225 19.3177 4 17.25 4ZM6.75 5.5H17.25C18.4905 5.5 19.5 6.5095 19.5 7.75V12.25H18C18 10.5955 16.6545 9.25 15 9.25H14.25C13.3545 9.25 12.5505 9.6445 12 10.2678C11.4495 9.64375 10.6455 9.25 9.75 9.25H9C7.3455 9.25 6 10.5955 6 12.25H4.5V7.75C4.5 6.5095 5.5095 5.5 6.75 5.5ZM12.75 12.25C12.75 11.4227 13.4227 10.75 14.25 10.75H15C15.8272 10.75 16.5 11.4227 16.5 12.25H12.75ZM7.5 12.25C7.5 11.4227 8.17275 10.75 9 10.75H9.75C10.5772 10.75 11.25 11.4227 11.25 12.25H7.5ZM4.5 15.25V13.75H19.5V15.25H4.5Z" fill="#D1D1D6"/>
</svg>
