<svg width="24" height="24" viewBox="0 0 24 24" fill="none" xmlns="http://www.w3.org/2000/svg">
<path d="M18.8333 13.0833H10.9167V5.16667C10.9167 3.42025 9.49642 2 7.75 2H6.16667C4.42025 2 3 3.42025 3 5.16667V17.0417C3 19.2243 4.77571 21 6.95833 21H18.8333C20.5798 21 22 19.5798 22 17.8333V16.25C22 14.5036 20.5798 13.0833 18.8333 13.0833ZM20.4167 17.8333C20.4167 18.7065 19.7065 19.4167 18.8333 19.4167H6.95833C5.64892 19.4167 4.58333 18.3511 4.58333 17.0417V5.16667C4.58333 4.29346 5.29346 3.58333 6.16667 3.58333H7.75C8.62321 3.58333 9.33333 4.29346 9.33333 5.16667V6.75H7.75C7.313 6.75 6.95833 7.10388 6.95833 7.54167C6.95833 7.97946 7.313 8.33333 7.75 8.33333H9.33333V9.91667H7.75C7.313 9.91667 6.95833 10.2705 6.95833 10.7083C6.95833 11.1461 7.313 11.5 7.75 11.5H9.33333V13.0833H7.75C7.313 13.0833 6.95833 13.4372 6.95833 13.875C6.95833 14.3128 7.313 14.6667 7.75 14.6667H9.33333V16.25C9.33333 16.6878 9.688 17.0417 10.125 17.0417C10.562 17.0417 10.9167 16.6878 10.9167 16.25V14.6667H12.5V16.25C12.5 16.6878 12.8547 17.0417 13.2917 17.0417C13.7287 17.0417 14.0833 16.6878 14.0833 16.25V14.6667H15.6667V16.25C15.6667 16.6878 16.0205 17.0417 16.4583 17.0417C16.8961 17.0417 17.25 16.6878 17.25 16.25V14.6667H18.8333C19.7065 14.6667 20.4167 15.3768 20.4167 16.25V17.8333Z" fill="#D1D1D6"/>
</svg>
