<svg width="12" height="12" viewBox="0 0 12 12" fill="none" xmlns="http://www.w3.org/2000/svg">
<g clip-path="url(#clip0_671_934)">
<path d="M10 7H5V2C5 0.897 4.103 0 3 0H2C0.897 0 0 0.897 0 2V9.5C0 10.8785 1.1215 12 2.5 12H10C11.103 12 12 11.103 12 10V9C12 7.897 11.103 7 10 7ZM11 10C11 10.5515 10.5515 11 10 11H2.5C1.673 11 1 10.327 1 9.5V2C1 1.4485 1.4485 1 2 1H3C3.5515 1 4 1.4485 4 2V3H3C2.724 3 2.5 3.2235 2.5 3.5C2.5 3.7765 2.724 4 3 4H4V5H3C2.724 5 2.5 5.2235 2.5 5.5C2.5 5.7765 2.724 6 3 6H4V7H3C2.724 7 2.5 7.2235 2.5 7.5C2.5 7.7765 2.724 8 3 8H4V9C4 9.2765 4.224 9.5 4.5 9.5C4.776 9.5 5 9.2765 5 9V8H6V9C6 9.2765 6.224 9.5 6.5 9.5C6.776 9.5 7 9.2765 7 9V8H8V9C8 9.2765 8.2235 9.5 8.5 9.5C8.7765 9.5 9 9.2765 9 9V8H10C10.5515 8 11 8.4485 11 9V10Z" fill="#BE932A"/>
</g>
<defs>
<clipPath id="clip0_671_934">
<rect width="12" height="12" fill="white"/>
</clipPath>
</defs>
</svg>
