<svg width="12" height="12" viewBox="0 0 12 12" fill="none" xmlns="http://www.w3.org/2000/svg">
<g clip-path="url(#clip0_671_929)">
<path d="M11.6245 6.5076C11.34 6.1851 10.93 6.0001 10.5 6.0001H1V2.2411C1 1.8206 1.19 1.4046 1.5465 1.1811C2.091 0.839605 2.756 1.0076 3.1 1.4666L3.2295 1.6391L2.988 3.0246C2.959 3.1916 2.9935 3.3636 3.085 3.5061C3.2975 3.8371 3.7465 3.9181 4.061 3.6821L5.864 2.3301C6.1475 2.1176 6.219 1.7216 6.0275 1.4231L6.021 1.4126C5.9025 1.2276 5.701 1.1116 5.4815 1.1016L4.0285 1.0371L3.9415 0.921105C3.6125 0.482605 3.145 0.150105 2.607 0.0436048C1.22 -0.230895 0 0.828105 0 2.1666C0 2.1666 0.002 5.0216 0.003 6.1281C0.003 6.4161 0.0215 6.7006 0.057 6.9866C0.1075 7.3911 0.1755 7.9366 0.1755 7.9366C0.301 8.9391 0.787 9.8201 1.493 10.4551L1.2645 11.3801C1.198 11.6481 1.3615 11.9191 1.6295 11.9856C1.67 11.9956 1.71 12.0001 1.75 12.0001C1.9745 12.0001 2.1785 11.8476 2.235 11.6201L2.3735 11.0596C2.928 11.3416 3.5535 11.5001 4.2115 11.5001H7.92C8.5315 11.5001 9.115 11.3636 9.64 11.1176L9.7645 11.6201C9.8205 11.8476 10.025 12.0001 10.2495 12.0001C10.2895 12.0001 10.3295 11.9951 10.37 11.9856C10.638 11.9191 10.8015 11.6481 10.735 11.3801L10.53 10.5501C11.295 9.9091 11.8255 8.9901 11.957 7.9371L11.988 7.6866C12.041 7.2596 11.909 6.8306 11.624 6.5081L11.6245 6.5076ZM10.996 7.5621L10.965 7.8126C10.7735 9.3446 9.4645 10.5001 7.9205 10.5001H4.212C2.668 10.5001 1.3595 9.3446 1.168 7.8126L1.0665 7.0001H10.5C10.6455 7.0001 10.779 7.0601 10.875 7.1691C10.971 7.2786 11.014 7.4176 10.996 7.5621Z" fill="#BE932A"/>
</g>
<defs>
<clipPath id="clip0_671_929">
<rect width="12" height="12" fill="white"/>
</clipPath>
</defs>
</svg>
