<svg width="12" height="12" viewBox="0 0 12 12" fill="none" xmlns="http://www.w3.org/2000/svg">
<g clip-path="url(#clip0_671_924)">
<path d="M9.5 1H2.5C1.1215 1 0 2.1215 0 3.5V10.5C0 10.7765 0.224 11 0.5 11C0.776 11 1 10.7765 1 10.5V9.5H11V10.5C11 10.7765 11.2235 11 11.5 11C11.7765 11 12 10.7765 12 10.5V3.5C12 2.1215 10.8785 1 9.5 1ZM2.5 2H9.5C10.327 2 11 2.673 11 3.5V6.5H10C10 5.397 9.103 4.5 8 4.5H7.5C6.903 4.5 6.367 4.763 6 5.1785C5.633 4.7625 5.097 4.5 4.5 4.5H4C2.897 4.5 2 5.397 2 6.5H1V3.5C1 2.673 1.673 2 2.5 2ZM6.5 6.5C6.5 5.9485 6.9485 5.5 7.5 5.5H8C8.5515 5.5 9 5.9485 9 6.5H6.5ZM3 6.5C3 5.9485 3.4485 5.5 4 5.5H4.5C5.0515 5.5 5.5 5.9485 5.5 6.5H3ZM1 8.5V7.5H11V8.5H1Z" fill="#BE932A"/>
</g>
<defs>
<clipPath id="clip0_671_924">
<rect width="12" height="12" fill="white"/>
</clipPath>
</defs>
</svg>
