<svg width="24" height="24" viewBox="0 0 24 24" fill="none" xmlns="http://www.w3.org/2000/svg">
<g clip-path="url(#clip0_287_1950)">
<path d="M22 11.5C22 9.56998 20.43 7.99998 18.5 7.99998H5.5C3.57 7.99998 2 9.56998 2 11.5V13H0V22H2V24H3V22H21V24H22V22H24V13H22V11.5ZM5.5 8.99998H18.5C19.878 8.99998 21 10.122 21 11.5V13.051C19.86 13.283 19 14.293 19 15.5V17H5V15.5C5 14.293 4.14 13.283 3 13.051V11.5C3 10.122 4.122 8.99998 5.5 8.99998ZM23 21H1V14H2.5C3.327 14 4 14.673 4 15.5V18H20V15.5C20 14.673 20.673 14 21.5 14H23V21ZM0.39 4.41398C0.154 4.20498 0 3.85998 0 3.49998C0 3.13998 0.154 2.79498 0.422 2.55398L2.773 0.0199766L3.505 0.700977L1.37 2.99998H22.633L20.476 0.681977L21.208 0.000976562L23.61 2.58498C23.846 2.79398 24 3.13898 24 3.49898C24 3.85898 23.846 4.20398 23.578 4.44498L21.212 6.99298L20.48 6.31198L22.63 3.99898H1.367L3.525 6.31798L2.793 6.99898L0.39 4.41398Z" fill="black"/>
</g>
<defs>
<clipPath id="clip0_287_1950">
<rect width="24" height="24" fill="white"/>
</clipPath>
</defs>
</svg>
