<svg width="33" height="32" viewBox="0 0 33 32" fill="none" xmlns="http://www.w3.org/2000/svg">
<g clip-path="url(#clip0_570_2296)">
<path d="M16.5 16C18.0823 16 19.629 15.5308 20.9446 14.6518C22.2602 13.7727 23.2855 12.5233 23.891 11.0615C24.4965 9.59967 24.655 7.99114 24.3463 6.43929C24.0376 4.88744 23.2757 3.46197 22.1569 2.34315C21.038 1.22433 19.6126 0.462403 18.0607 0.153721C16.5089 -0.154961 14.9003 0.00346629 13.4385 0.608968C11.9767 1.21447 10.7273 2.23985 9.84824 3.55544C8.96919 4.87104 8.5 6.41776 8.5 8.00001C8.50212 10.1211 9.34565 12.1547 10.8455 13.6545C12.3453 15.1544 14.3789 15.9979 16.5 16ZM16.5 2.66667C17.5548 2.66667 18.586 2.97947 19.463 3.5655C20.3401 4.15154 21.0237 4.98449 21.4274 5.95903C21.831 6.93357 21.9367 8.00593 21.7309 9.04049C21.5251 10.0751 21.0171 11.0254 20.2712 11.7712C19.5254 12.5171 18.5751 13.0251 17.5405 13.2309C16.5059 13.4367 15.4336 13.331 14.459 12.9274C13.4845 12.5237 12.6515 11.8401 12.0655 10.9631C11.4795 10.086 11.1667 9.05484 11.1667 8.00001C11.1667 6.58552 11.7286 5.22897 12.7288 4.22877C13.729 3.22858 15.0855 2.66667 16.5 2.66667Z" fill="url(#paint0_linear_570_2296)"/>
<path d="M16.5 18.6666C13.3185 18.6702 10.2683 19.9356 8.01862 22.1852C5.76894 24.4349 4.50353 27.4851 4.5 30.6666C4.5 31.0203 4.64048 31.3594 4.89052 31.6095C5.14057 31.8595 5.47971 32 5.83333 32C6.18696 32 6.52609 31.8595 6.77614 31.6095C7.02619 31.3594 7.16667 31.0203 7.16667 30.6666C7.16667 28.1913 8.15 25.8173 9.90034 24.067C11.6507 22.3166 14.0246 21.3333 16.5 21.3333C18.9754 21.3333 21.3493 22.3166 23.0997 24.067C24.85 25.8173 25.8333 28.1913 25.8333 30.6666C25.8333 31.0203 25.9738 31.3594 26.2239 31.6095C26.4739 31.8595 26.813 32 27.1667 32C27.5203 32 27.8594 31.8595 28.1095 31.6095C28.3595 31.3594 28.5 31.0203 28.5 30.6666C28.4965 27.4851 27.2311 24.4349 24.9814 22.1852C22.7317 19.9356 19.6815 18.6702 16.5 18.6666Z" fill="url(#paint1_linear_570_2296)"/>
</g>
<defs>
<linearGradient id="paint0_linear_570_2296" x1="8.5" y1="0" x2="27.1992" y2="4.32212" gradientUnits="userSpaceOnUse">
<stop offset="0.0154944" stop-color="#AE8625"/>
<stop offset="0.329993" stop-color="#F7EF8A"/>
<stop offset="0.664996" stop-color="#D2AC47"/>
<stop offset="1" stop-color="#EDC967"/>
</linearGradient>
<linearGradient id="paint1_linear_570_2296" x1="4.5" y1="18.6666" x2="29.6875" y2="29.1459" gradientUnits="userSpaceOnUse">
<stop offset="0.0154944" stop-color="#AE8625"/>
<stop offset="0.329993" stop-color="#F7EF8A"/>
<stop offset="0.664996" stop-color="#D2AC47"/>
<stop offset="1" stop-color="#EDC967"/>
</linearGradient>
<clipPath id="clip0_570_2296">
<rect width="32" height="32" fill="white" transform="translate(0.5)"/>
</clipPath>
</defs>
</svg>
