<svg width="14" height="8" viewBox="0 0 14 8" fill="none" xmlns="http://www.w3.org/2000/svg">
<path fill-rule="evenodd" clip-rule="evenodd" d="M7.70698 7.70698C7.51945 7.89445 7.26514 7.99976 6.99998 7.99976C6.73481 7.99976 6.4805 7.89445 6.29298 7.70698L0.635977 2.04998C0.540467 1.95773 0.464284 1.84739 0.411875 1.72538C0.359466 1.60338 0.33188 1.47216 0.330726 1.33938C0.329572 1.2066 0.354874 1.07492 0.405155 0.952023C0.455436 0.829127 0.529689 0.717474 0.623582 0.623581C0.717475 0.529689 0.829126 0.455436 0.952023 0.405155C1.07492 0.354874 1.2066 0.329572 1.33938 0.330726C1.47216 0.33188 1.60338 0.359466 1.72538 0.411875C1.84739 0.464284 1.95773 0.540466 2.04998 0.635976L6.99998 5.58598L11.95 0.635976C12.1386 0.453818 12.3912 0.353024 12.6534 0.355302C12.9156 0.357581 13.1664 0.46275 13.3518 0.648158C13.5372 0.833566 13.6424 1.08438 13.6447 1.34658C13.6469 1.60877 13.5461 1.86137 13.364 2.04998L7.70698 7.70698Z" fill="url(#paint0_linear_287_1507)"/>
<defs>
<linearGradient id="paint0_linear_287_1507" x1="0.330688" y1="0.330688" x2="14.4488" y2="5.99589" gradientUnits="userSpaceOnUse">
<stop offset="0.0154944" stop-color="#AE8625"/>
<stop offset="0.329993" stop-color="#F7EF8A"/>
<stop offset="0.664996" stop-color="#D2AC47"/>
<stop offset="1" stop-color="#EDC967"/>
</linearGradient>
</defs>
</svg>
