<svg width="20" height="20" viewBox="0 0 20 20" fill="none" xmlns="http://www.w3.org/2000/svg">
<path d="M1.66659 4.39171L2.73325 3.33337L16.6666 17.2667L15.6083 18.3334L13.0416 15.7667C12.0833 16.0834 11.0666 16.25 9.99992 16.25C5.83325 16.25 2.27492 13.6584 0.833252 10C1.40825 8.53337 2.32492 7.24171 3.49159 6.21671L1.66659 4.39171ZM9.99992 7.50004C10.663 7.50004 11.2988 7.76343 11.7677 8.23227C12.2365 8.70111 12.4999 9.337 12.4999 10C12.5003 10.2838 12.4524 10.5657 12.3583 10.8334L9.16659 7.64171C9.43431 7.54753 9.71611 7.49962 9.99992 7.50004ZM9.99992 3.75004C14.1666 3.75004 17.7249 6.34171 19.1666 10C18.4861 11.7275 17.3304 13.227 15.8333 14.325L14.6499 13.1334C15.8024 12.3362 16.7318 11.2576 17.3499 10C16.6763 8.62493 15.6304 7.4664 14.3311 6.65617C13.0317 5.84594 11.5312 5.41651 9.99992 5.41671C9.09159 5.41671 8.19992 5.56671 7.36659 5.83337L6.08325 4.55837C7.28325 4.04171 8.60825 3.75004 9.99992 3.75004ZM2.64992 10C3.32354 11.3752 4.36946 12.5337 5.66878 13.3439C6.9681 14.1541 8.46868 14.5836 9.99992 14.5834C10.5749 14.5834 11.1416 14.525 11.6666 14.4084L9.76659 12.5C9.18672 12.4379 8.64561 12.1791 8.23323 11.7667C7.82086 11.3544 7.56207 10.8132 7.49992 10.2334L4.66659 7.39171C3.84159 8.10004 3.14992 8.98337 2.64992 10Z" fill="#D1D1D6"/>
</svg>
