<svg width="23" height="18" viewBox="0 0 23 18" fill="none" xmlns="http://www.w3.org/2000/svg">
<path d="M1.5 1.27L2.78 0L19.5 16.72L18.23 18L15.15 14.92C14 15.3 12.78 15.5 11.5 15.5C6.5 15.5 2.23 12.39 0.5 8C1.19 6.24 2.29 4.69 3.69 3.46L1.5 1.27ZM11.5 5C12.2956 5 13.0587 5.31607 13.6213 5.87868C14.1839 6.44129 14.5 7.20435 14.5 8C14.5005 8.34057 14.443 8.67873 14.33 9L10.5 5.17C10.8213 5.05698 11.1594 4.99949 11.5 5ZM11.5 0.5C16.5 0.5 20.77 3.61 22.5 8C21.6834 10.0729 20.2966 11.8723 18.5 13.19L17.08 11.76C18.4629 10.8034 19.5783 9.5091 20.32 8C19.5117 6.34987 18.2565 4.95963 16.6974 3.98735C15.1382 3.01508 13.3375 2.49976 11.5 2.5C10.41 2.5 9.34 2.68 8.34 3L6.8 1.47C8.24 0.85 9.83 0.5 11.5 0.5ZM2.68 8C3.48835 9.65014 4.74345 11.0404 6.30264 12.0126C7.86182 12.9849 9.66251 13.5002 11.5 13.5C12.19 13.5 12.87 13.43 13.5 13.29L11.22 11C10.5242 10.9254 9.87482 10.6149 9.37997 10.12C8.88512 9.62518 8.57458 8.97584 8.5 8.28L5.1 4.87C4.11 5.72 3.28 6.78 2.68 8Z" fill="url(#paint0_linear_453_1596)"/>
<defs>
<linearGradient id="paint0_linear_453_1596" x1="0.5" y1="0" x2="25.5832" y2="7.08609" gradientUnits="userSpaceOnUse">
<stop offset="0.0154944" stop-color="#AE8625"/>
<stop offset="0.329993" stop-color="#F7EF8A"/>
<stop offset="0.664996" stop-color="#D2AC47"/>
<stop offset="1" stop-color="#EDC967"/>
</linearGradient>
</defs>
</svg>
