<svg width="14" height="15" viewBox="0 0 14 15" fill="none" xmlns="http://www.w3.org/2000/svg">
<path d="M7.47132 1.02869L13.4713 7.02869C13.8913 7.44869 13.594 8.16669 13 8.16669H12.3333V12.1667C12.3333 12.6971 12.1226 13.2058 11.7475 13.5809C11.3725 13.956 10.8638 14.1667 10.3333 14.1667H9.66665V9.50002C9.66668 8.98988 9.47177 8.49901 9.1218 8.12785C8.77182 7.75668 8.29325 7.53328 7.78398 7.50335L7.66665 7.50002H6.33332C5.80289 7.50002 5.29418 7.71073 4.9191 8.08581C4.54403 8.46088 4.33332 8.96959 4.33332 9.50002V14.1667H3.66665C3.13622 14.1667 2.62751 13.956 2.25244 13.5809C1.87737 13.2058 1.66665 12.6971 1.66665 12.1667V8.16669H0.999985C0.406652 8.16669 0.108652 7.44869 0.528652 7.02869L6.52865 1.02869C6.65367 0.903706 6.82321 0.833496 6.99998 0.833496C7.17676 0.833496 7.3463 0.903706 7.47132 1.02869ZM7.66665 8.83335C7.84346 8.83335 8.01303 8.90359 8.13806 9.02862C8.26308 9.15364 8.33332 9.32321 8.33332 9.50002V14.1667H5.66665V9.50002C5.66667 9.33673 5.72662 9.17913 5.83513 9.05711C5.94363 8.93508 6.09315 8.85713 6.25532 8.83802L6.33332 8.83335H7.66665Z" fill="url(#paint0_linear_453_1619)"/>
<defs>
<linearGradient id="paint0_linear_453_1619" x1="0.332153" y1="0.833496" x2="15.9174" y2="4.43656" gradientUnits="userSpaceOnUse">
<stop offset="0.0154944" stop-color="#AE8625"/>
<stop offset="0.329993" stop-color="#F7EF8A"/>
<stop offset="0.664996" stop-color="#D2AC47"/>
<stop offset="1" stop-color="#EDC967"/>
</linearGradient>
</defs>
</svg>
