<svg width="65" height="24" viewBox="0 0 65 24" fill="none" xmlns="http://www.w3.org/2000/svg">
<path d="M1.61417 7.7H3.23817L8.90817 15.47L8.48817 15.61V7.7H10.1122V17.5H8.48817L2.83217 9.744L3.26617 9.604V17.5H1.61417V7.7ZM17.7561 13.244C17.7374 12.824 17.6394 12.4693 17.4621 12.18C17.2941 11.8813 17.0561 11.6527 16.7481 11.494C16.4401 11.326 16.0854 11.242 15.6841 11.242C15.2361 11.242 14.8441 11.3447 14.5081 11.55C14.1814 11.7553 13.9247 12.0447 13.7381 12.418C13.5514 12.782 13.4581 13.2113 13.4581 13.706C13.4581 14.238 13.5561 14.7 13.7521 15.092C13.9574 15.484 14.2374 15.7873 14.5921 16.002C14.9561 16.2167 15.3714 16.324 15.8381 16.324C16.6687 16.324 17.3687 16.03 17.9381 15.442L18.7921 16.296C18.4281 16.6973 17.9847 17.01 17.4621 17.234C16.9394 17.4487 16.3561 17.556 15.7121 17.556C14.9467 17.556 14.2794 17.3973 13.7101 17.08C13.1407 16.7627 12.6974 16.324 12.3801 15.764C12.0627 15.1947 11.9041 14.5367 11.9041 13.79C11.9041 13.0433 12.0627 12.39 12.3801 11.83C12.6974 11.2607 13.1407 10.8173 13.7101 10.5C14.2794 10.1827 14.9327 10.0193 15.6701 10.01C16.5474 10.01 17.2521 10.192 17.7841 10.556C18.3161 10.9107 18.6941 11.4147 18.9181 12.068C19.1421 12.7213 19.2214 13.496 19.1561 14.392H13.2061V13.244H17.7561ZM19.5987 10.066H21.4467L23.1127 12.67L24.8067 10.066H26.5707L24.1767 13.692L26.7387 17.5H24.8907L23.1127 14.714L21.2087 17.5H19.4167L22.0487 13.692L19.5987 10.066ZM30.0527 15.148C30.0527 15.5493 30.1227 15.8247 30.2627 15.974C30.4027 16.114 30.5987 16.184 30.8507 16.184C31.0187 16.184 31.1913 16.156 31.3687 16.1C31.5553 16.044 31.756 15.96 31.9707 15.848L32.3767 17.01C32.0873 17.1873 31.7887 17.3273 31.4807 17.43C31.1727 17.5233 30.86 17.57 30.5427 17.57C30.1693 17.57 29.824 17.5 29.5067 17.36C29.1893 17.2107 28.9327 16.9773 28.7367 16.66C28.55 16.3427 28.4567 15.932 28.4567 15.428V8.302H30.0527V15.148ZM27.4067 10.332H32.2507V11.48H27.4067V10.332Z" fill="#FFFFF5"/>
<path d="M0.326172 19.25H32.6707V19.95H0.326172V19.25Z" fill="#FFFFF5"/>
<path d="M57.175 11L52.275 6.10001C52.075 5.90001 51.979 5.66668 51.987 5.40001C51.995 5.13335 52.0993 4.90001 52.3 4.70001C52.5 4.51668 52.7333 4.42068 53 4.41201C53.2667 4.40335 53.5 4.49935 53.7 4.70001L60.3 11.3C60.4 11.4 60.471 11.5083 60.513 11.625C60.555 11.7417 60.5753 11.8667 60.574 12C60.5727 12.1333 60.5517 12.2583 60.511 12.375C60.4703 12.4917 60.3997 12.6 60.299 12.7L53.699 19.3C53.5157 19.4833 53.2863 19.575 53.011 19.575C52.7357 19.575 52.4983 19.4833 52.299 19.3C52.099 19.1 51.999 18.8623 51.999 18.587C51.999 18.3117 52.099 18.0743 52.299 17.875L57.175 13L46 13C45.7167 13 45.479 12.904 45.287 12.712C45.095 12.52 44.9993 12.2827 45 12C45.0007 11.7173 45.0967 11.4797 45.288 11.287C45.4793 11.0943 45.7167 10.9987 46 11L57.175 11Z" fill="#FFFFF5"/>
</svg>
