<svg width="20" height="20" viewBox="0 0 20 20" fill="none" xmlns="http://www.w3.org/2000/svg">
<path d="M19 8.08333V14.4583C19 16.4133 17.4133 18 15.4583 18H5.54167C3.58667 18 2 16.4133 2 14.4583V6.66667C2 4.71167 3.58667 3.125 5.54167 3.125H11.2083C11.5979 3.125 11.9167 3.44375 11.9167 3.83333C11.9167 4.22292 11.5979 4.54167 11.2083 4.54167H5.54167C4.72708 4.54167 4.02583 5.00208 3.66458 5.66792L8.99833 11.0017C9.82708 11.8304 11.1729 11.8304 12.0017 11.0017L14.7075 8.29583C14.9838 8.01958 15.43 8.01958 15.7063 8.29583C15.9825 8.57208 15.9825 9.01833 15.7063 9.29458L13.0004 12.0004C12.3133 12.6875 11.3996 13.0346 10.4929 13.0346C9.58625 13.0346 8.67958 12.6875 7.98542 12.0004L3.41667 7.42458V14.4583C3.41667 15.6271 4.37292 16.5833 5.54167 16.5833H15.4583C16.6271 16.5833 17.5833 15.6271 17.5833 14.4583V8.08333C17.5833 7.69375 17.9021 7.375 18.2917 7.375C18.6812 7.375 19 7.69375 19 8.08333ZM13.3333 3.83333C13.3333 2.26792 14.6012 1 16.1667 1C17.7321 1 19 2.26792 19 3.83333C19 5.39875 17.7321 6.66667 16.1667 6.66667C14.6012 6.66667 13.3333 5.39875 13.3333 3.83333ZM14.75 3.83333C14.75 4.6125 15.3875 5.25 16.1667 5.25C16.9458 5.25 17.5833 4.6125 17.5833 3.83333C17.5833 3.05417 16.9458 2.41667 16.1667 2.41667C15.3875 2.41667 14.75 3.05417 14.75 3.83333Z" fill="#FFFFF5"/>
</svg>
