<svg width="88" height="24" viewBox="0 0 88 24" fill="none" xmlns="http://www.w3.org/2000/svg">
<path d="M7.82509 13L12.7251 17.9C12.9251 18.1 13.0211 18.3334 13.0131 18.6C13.0051 18.8667 12.9008 19.1 12.7001 19.3C12.5001 19.4834 12.2668 19.5794 12.0001 19.588C11.7334 19.5967 11.5001 19.5007 11.3001 19.3L4.70009 12.7C4.60009 12.6 4.52909 12.4917 4.48709 12.375C4.44509 12.2584 4.42475 12.1334 4.42609 12C4.42742 11.8667 4.44842 11.7417 4.48909 11.625C4.52975 11.5084 4.60042 11.4 4.70109 11.3L11.3011 4.70005C11.4844 4.51672 11.7138 4.42505 11.9891 4.42505C12.2644 4.42505 12.5018 4.51672 12.7011 4.70005C12.9011 4.90005 13.0011 5.13772 13.0011 5.41305C13.0011 5.68838 12.9011 5.92572 12.7011 6.12505L7.82509 11H19.0001C19.2834 11 19.5211 11.096 19.7131 11.288C19.9051 11.48 20.0008 11.7174 20.0001 12C19.9994 12.2827 19.9034 12.5204 19.7121 12.713C19.5208 12.9057 19.2834 13.0014 19.0001 13H7.82509Z" fill="#FFFFF5"/>
<path d="M34.3473 7.7C35.5793 7.7 36.5313 7.994 37.2033 8.582C37.8847 9.16067 38.2253 9.97733 38.2253 11.032C38.2253 12.1333 37.8847 12.992 37.2033 13.608C36.5313 14.2147 35.5793 14.518 34.3473 14.518H31.3653L32.0933 13.79V17.5H30.4413V7.7H34.3473ZM34.2773 13.104C35.0333 13.104 35.6167 12.9407 36.0273 12.614C36.438 12.278 36.6433 11.7647 36.6433 11.074C36.6433 10.4113 36.438 9.92133 36.0273 9.604C35.6167 9.27733 35.0333 9.114 34.2773 9.114H31.3653L32.0933 8.386V13.832L31.3653 13.104H34.2773ZM43.9492 11.466C43.4172 11.438 42.9552 11.5313 42.5632 11.746C42.1806 11.9513 41.8819 12.2407 41.6672 12.614C41.4619 12.9873 41.3592 13.4167 41.3592 13.902L40.9112 13.846C40.9112 13.0153 41.0326 12.3153 41.2752 11.746C41.5179 11.1767 41.8679 10.7473 42.3252 10.458C42.7826 10.1593 43.3239 10.01 43.9492 10.01V11.466ZM39.7632 10.066H41.3732V17.5H39.7632V10.066ZM50.425 13.244C50.4063 12.824 50.3083 12.4693 50.131 12.18C49.963 11.8813 49.725 11.6527 49.417 11.494C49.109 11.326 48.7543 11.242 48.353 11.242C47.905 11.242 47.513 11.3447 47.177 11.55C46.8503 11.7553 46.5937 12.0447 46.407 12.418C46.2203 12.782 46.127 13.2113 46.127 13.706C46.127 14.238 46.225 14.7 46.421 15.092C46.6263 15.484 46.9063 15.7873 47.261 16.002C47.625 16.2167 48.0403 16.324 48.507 16.324C49.3377 16.324 50.0377 16.03 50.607 15.442L51.461 16.296C51.097 16.6973 50.6537 17.01 50.131 17.234C49.6083 17.4487 49.025 17.556 48.381 17.556C47.6157 17.556 46.9483 17.3973 46.379 17.08C45.8097 16.7627 45.3663 16.324 45.049 15.764C44.7317 15.1947 44.573 14.5367 44.573 13.79C44.573 13.0433 44.7317 12.39 45.049 11.83C45.3663 11.2607 45.8097 10.8173 46.379 10.5C46.9483 10.1827 47.6017 10.0193 48.339 10.01C49.2163 10.01 49.921 10.192 50.453 10.556C50.985 10.9107 51.363 11.4147 51.587 12.068C51.811 12.7213 51.8903 13.496 51.825 14.392H45.875V13.244H50.425ZM52.054 10.066H53.734L55.806 16.016L57.85 10.066H59.46L56.604 17.5H54.938L52.054 10.066ZM60.5855 10.066H62.1815V17.5H60.5855V10.066ZM61.3835 7C61.6542 7 61.8782 7.08867 62.0555 7.266C62.2328 7.44333 62.3215 7.66733 62.3215 7.938C62.3215 8.19933 62.2328 8.42333 62.0555 8.61C61.8782 8.78733 61.6542 8.876 61.3835 8.876C61.1222 8.876 60.8982 8.78733 60.7115 8.61C60.5342 8.42333 60.4455 8.19933 60.4455 7.938C60.4455 7.66733 60.5342 7.44333 60.7115 7.266C60.8982 7.08867 61.1222 7 61.3835 7ZM67.756 10.01C68.5214 10.01 69.1934 10.1687 69.772 10.486C70.36 10.8033 70.8174 11.2467 71.144 11.816C71.4707 12.376 71.634 13.0293 71.634 13.776C71.634 14.5227 71.4707 15.1807 71.144 15.75C70.8174 16.3193 70.36 16.7627 69.772 17.08C69.1934 17.3973 68.5214 17.556 67.756 17.556C66.9907 17.556 66.314 17.3973 65.726 17.08C65.138 16.7627 64.6807 16.3193 64.354 15.75C64.0274 15.1807 63.864 14.5227 63.864 13.776C63.864 13.0293 64.0274 12.376 64.354 11.816C64.6807 11.2467 65.138 10.8033 65.726 10.486C66.314 10.1687 66.9907 10.01 67.756 10.01ZM67.756 11.312C67.308 11.312 66.9114 11.4193 66.566 11.634C66.2207 11.8393 65.95 12.1287 65.754 12.502C65.5674 12.8753 65.474 13.3047 65.474 13.79C65.474 14.2847 65.5674 14.7187 65.754 15.092C65.95 15.4653 66.2207 15.7593 66.566 15.974C66.9114 16.1793 67.308 16.282 67.756 16.282C68.204 16.282 68.596 16.1793 68.932 15.974C69.2774 15.7593 69.5434 15.4653 69.73 15.092C69.926 14.7187 70.024 14.2847 70.024 13.79C70.024 13.3047 69.926 12.8753 69.73 12.502C69.5434 12.1287 69.2774 11.8393 68.932 11.634C68.596 11.4193 68.204 11.312 67.756 11.312ZM74.686 14.266C74.686 14.8447 74.84 15.302 75.148 15.638C75.456 15.9647 75.8807 16.128 76.422 16.128C77.066 16.1093 77.5654 15.8713 77.92 15.414C78.284 14.9567 78.466 14.392 78.466 13.72H78.9C78.9 14.6347 78.774 15.372 78.522 15.932C78.27 16.492 77.9107 16.9027 77.444 17.164C76.9867 17.416 76.4407 17.5467 75.806 17.556C75.2367 17.556 74.7467 17.4393 74.336 17.206C73.9347 16.9727 73.622 16.6413 73.398 16.212C73.1834 15.7827 73.076 15.274 73.076 14.686V10.066H74.686V14.266ZM78.466 10.066H80.076V17.5H78.466V10.066ZM86.7025 11.872C86.3758 11.676 86.0165 11.522 85.6245 11.41C85.2418 11.2887 84.8872 11.228 84.5605 11.228C84.2432 11.228 83.9818 11.2887 83.7765 11.41C83.5712 11.5313 83.4685 11.732 83.4685 12.012C83.4685 12.2453 83.5618 12.432 83.7485 12.572C83.9445 12.7027 84.1918 12.8147 84.4905 12.908C84.7892 13.0013 85.1065 13.0993 85.4425 13.202C85.7785 13.3047 86.0958 13.44 86.3945 13.608C86.7025 13.7667 86.9498 13.986 87.1365 14.266C87.3232 14.546 87.4165 14.9147 87.4165 15.372C87.4165 15.876 87.2812 16.2913 87.0105 16.618C86.7492 16.9353 86.3992 17.1733 85.9605 17.332C85.5312 17.4813 85.0645 17.556 84.5605 17.556C84.0192 17.556 83.4778 17.4673 82.9365 17.29C82.3952 17.1127 81.9378 16.856 81.5645 16.52L82.1385 15.428C82.4652 15.7173 82.8618 15.946 83.3285 16.114C83.7952 16.2727 84.2292 16.352 84.6305 16.352C84.8638 16.352 85.0692 16.324 85.2465 16.268C85.4332 16.2027 85.5778 16.1093 85.6805 15.988C85.7925 15.8667 85.8485 15.708 85.8485 15.512C85.8485 15.2507 85.7552 15.0453 85.5685 14.896C85.3818 14.7467 85.1392 14.6253 84.8405 14.532C84.5418 14.4293 84.2245 14.3313 83.8885 14.238C83.5525 14.1353 83.2352 14.0047 82.9365 13.846C82.6472 13.6873 82.4092 13.4727 82.2225 13.202C82.0358 12.9313 81.9425 12.572 81.9425 12.124C81.9425 11.62 82.0732 11.214 82.3345 10.906C82.5958 10.5887 82.9318 10.36 83.3425 10.22C83.7625 10.0707 84.2105 9.996 84.6865 9.996C85.1532 9.996 85.6198 10.0613 86.0865 10.192C86.5532 10.3227 86.9545 10.5047 87.2905 10.738L86.7025 11.872Z" fill="#FFFFF5"/>
<path d="M29.1533 19.25H87.8505V19.95H29.1533V19.25Z" fill="#FFFFF5"/>
</svg>
