<svg width="25" height="25" viewBox="0 0 25 25" fill="none" xmlns="http://www.w3.org/2000/svg">
<g clip-path="url(#clip0_671_138)">
<path d="M12.6666 12.5C13.8533 12.5 15.0134 12.1481 16.0001 11.4888C16.9867 10.8295 17.7558 9.89247 18.2099 8.79611C18.664 7.69975 18.7829 6.49335 18.5513 5.32946C18.3198 4.16558 17.7484 3.09648 16.9093 2.25736C16.0702 1.41825 15.0011 0.846803 13.8372 0.615291C12.6733 0.38378 11.4669 0.5026 10.3705 0.956726C9.27417 1.41085 8.3371 2.17989 7.67781 3.16658C7.01852 4.15328 6.66663 5.31332 6.66663 6.50001C6.66821 8.09082 7.30087 9.61602 8.42574 10.7409C9.55062 11.8658 11.0758 12.4984 12.6666 12.5ZM12.6666 2.5C13.4578 2.5 14.2311 2.7346 14.8889 3.17413C15.5467 3.61365 16.0594 4.23837 16.3622 4.96927C16.6649 5.70018 16.7441 6.50444 16.5898 7.28037C16.4354 8.05629 16.0545 8.76903 15.4951 9.32844C14.9356 9.88785 14.2229 10.2688 13.447 10.4232C12.6711 10.5775 11.8668 10.4983 11.1359 10.1955C10.405 9.89278 9.78028 9.38009 9.34075 8.72229C8.90122 8.06449 8.66663 7.29113 8.66663 6.50001C8.66663 5.43914 9.08805 4.42172 9.8382 3.67158C10.5883 2.92143 11.6058 2.5 12.6666 2.5Z" fill="#FFFFF5"/>
<path d="M12.6666 14.5C10.2805 14.5026 7.99284 15.4517 6.30559 17.139C4.61833 18.8262 3.66927 21.1139 3.66663 23.5C3.66663 23.7652 3.77198 24.0196 3.95952 24.2071C4.14706 24.3947 4.40141 24.5 4.66663 24.5C4.93184 24.5 5.1862 24.3947 5.37373 24.2071C5.56127 24.0196 5.66663 23.7652 5.66663 23.5C5.66663 21.6435 6.40412 19.863 7.71688 18.5503C9.02963 17.2375 10.8101 16.5 12.6666 16.5C14.5231 16.5 16.3036 17.2375 17.6164 18.5503C18.9291 19.863 19.6666 21.6435 19.6666 23.5C19.6666 23.7652 19.772 24.0196 19.9595 24.2071C20.1471 24.3947 20.4014 24.5 20.6666 24.5C20.9318 24.5 21.1862 24.3947 21.3737 24.2071C21.5613 24.0196 21.6666 23.7652 21.6666 23.5C21.664 21.1139 20.7149 18.8262 19.0277 17.139C17.3404 15.4517 15.0528 14.5026 12.6666 14.5Z" fill="#FFFFF5"/>
</g>
<defs>
<clipPath id="clip0_671_138">
<rect width="24" height="24" fill="white" transform="translate(0.666626 0.5)"/>
</clipPath>
</defs>
</svg>
