<svg width="20" height="20" viewBox="0 0 20 20" fill="none" xmlns="http://www.w3.org/2000/svg">
<path d="M10.4835 15.6009L10.3896 15.6948L10.2864 15.6009C5.82628 11.554 2.87793 8.87791 2.87793 6.16431C2.87793 4.28638 4.28638 2.87793 6.16431 2.87793C7.61031 2.87793 9.01876 3.81689 9.51641 5.09389H11.2629C11.7605 3.81689 13.169 2.87793 14.615 2.87793C16.4929 2.87793 17.9014 4.28638 17.9014 6.16431C17.9014 8.87791 14.953 11.554 10.4835 15.6009ZM14.615 1C12.9812 1 11.4131 1.76056 10.3896 2.95305C9.36617 1.76056 7.7981 1 6.16431 1C3.27229 1 1 3.2629 1 6.16431C1 9.7042 4.19248 12.6056 9.02815 16.9906L10.3896 18.23L11.7511 16.9906C16.5868 12.6056 19.7793 9.7042 19.7793 6.16431C19.7793 3.2629 17.507 1 14.615 1Z" fill="#D1D1D6"/>
</svg>
