<svg width="7" height="4" viewBox="0 0 7 4" fill="none" xmlns="http://www.w3.org/2000/svg">
<path fill-rule="evenodd" clip-rule="evenodd" d="M3.85355 3.85349C3.75979 3.94722 3.63263 3.99988 3.50005 3.99988C3.36747 3.99988 3.24031 3.94722 3.14655 3.85349L0.318049 1.02499C0.270294 0.978865 0.232203 0.923693 0.205999 0.862691C0.179794 0.801689 0.166001 0.736079 0.165424 0.669689C0.164847 0.603299 0.177498 0.53746 0.202639 0.476012C0.227779 0.414563 0.264906 0.358737 0.311852 0.311791C0.358798 0.264844 0.414624 0.227718 0.476072 0.202577C0.537521 0.177437 0.60336 0.164786 0.66975 0.165363C0.73614 0.16594 0.80175 0.179733 0.862752 0.205938C0.923754 0.232142 0.978926 0.270233 1.02505 0.317988L3.50005 2.79299L5.97505 0.317988C6.06935 0.226909 6.19565 0.176512 6.32675 0.177651C6.45785 0.17879 6.58325 0.231375 6.67596 0.324079C6.76866 0.416783 6.82125 0.542189 6.82239 0.673288C6.82353 0.804386 6.77313 0.930687 6.68205 1.02499L3.85355 3.85349Z" fill="#606060" fill-opacity="0.7"/>
</svg>
