<svg width="24" height="24" viewBox="0 0 24 24" fill="none" xmlns="http://www.w3.org/2000/svg">
<g clip-path="url(#clip0_287_2000)">
<path d="M12 6.14393L2.30598 20.8209C1.91098 21.4679 1.89698 22.2479 2.26798 22.9079C2.65198 23.5919 3.35798 23.9999 4.15598 23.9999H19.845C20.643 23.9999 21.349 23.5919 21.733 22.9079C22.104 22.2479 22.089 21.4689 21.685 20.8059L12 6.14393ZM8.96698 22.9999L12 18.4069L15.033 22.9999H8.96698ZM20.862 22.4179C20.657 22.7819 20.277 22.9999 19.845 22.9999H16.232L12 16.5929L7.76798 22.9999H4.15498C3.72298 22.9999 3.34298 22.7819 3.13798 22.4179C2.94598 22.0759 2.95098 21.6869 3.15498 21.3499L12 7.95793L20.841 21.3419C21.047 21.6809 21.055 22.0729 20.862 22.4179ZM23.566 5.55293L20.267 8.85093L19.56 8.14393L22.705 4.99993H1.29698L4.44198 8.14393L3.73498 8.85093L0.435977 5.55293C-0.144023 4.97193 -0.144023 4.02793 0.435977 3.44793L3.73398 0.148926L4.44098 0.855926L1.29598 3.99993H22.703L19.558 0.855926L20.265 0.148926L23.564 3.44693C24.144 4.02793 24.144 4.97193 23.564 5.55193L23.566 5.55293Z" fill="black"/>
</g>
<defs>
<clipPath id="clip0_287_2000">
<rect width="24" height="24" fill="white"/>
</clipPath>
</defs>
</svg>
