<svg width="9" height="15" viewBox="0 0 9 15" fill="none" xmlns="http://www.w3.org/2000/svg">
<path d="M0.363366 0.394637C0.248181 0.518919 0.156797 0.666543 0.0944456 0.829057C0.0320944 0.991571 0 1.16579 0 1.34173C0 1.51767 0.0320944 1.69188 0.0944456 1.8544C0.156797 2.01691 0.248181 2.16454 0.363366 2.28882L5.18432 7.50117L0.363366 12.7135C0.131044 12.9647 0.00052612 13.3054 0.00052612 13.6606C0.00052612 14.0158 0.131044 14.3565 0.363366 14.6077C0.595689 14.8589 0.910785 15 1.23934 15C1.56789 15 1.88299 14.8589 2.11531 14.6077L7.81845 8.44154C7.93364 8.31726 8.02502 8.16964 8.08737 8.00712C8.14972 7.84461 8.18182 7.67039 8.18182 7.49445C8.18182 7.31851 8.14972 7.1443 8.08737 6.98178C8.02502 6.81927 7.93364 6.67165 7.81845 6.54736L2.11531 0.381203C1.64316 -0.129285 0.847947 -0.129285 0.363366 0.394637Z" fill="#FFFFF5"/>
</svg>
