<svg width="9" height="16" viewBox="0 0 9 16" fill="none" xmlns="http://www.w3.org/2000/svg">
<path d="M8.61906 15.1891C8.73424 15.0648 8.82563 14.9172 8.88798 14.7547C8.95033 14.5922 8.98242 14.418 8.98242 14.242C8.98242 14.0661 8.95033 13.8919 8.88798 13.7293C8.82563 13.5668 8.73424 13.4192 8.61906 13.2949L3.7981 8.08257L8.61906 2.87022C8.85138 2.61903 8.9819 2.27836 8.9819 1.92313C8.9819 1.5679 8.85138 1.22722 8.61906 0.976036C8.38673 0.724852 8.07164 0.58374 7.74308 0.58374C7.41453 0.58374 7.09943 0.724852 6.86711 0.976036L1.16397 7.1422C1.04878 7.26648 0.957399 7.4141 0.895048 7.57662C0.832697 7.73913 0.800604 7.91335 0.800604 8.08929C0.800604 8.26523 0.832697 8.43944 0.895048 8.60196C0.957399 8.76447 1.04878 8.9121 1.16397 9.03638L6.86711 15.2025C7.33927 15.713 8.13448 15.713 8.61906 15.1891Z" fill="#FFFFF5"/>
</svg>
