<svg width="24" height="24" viewBox="0 0 24 24" fill="none" xmlns="http://www.w3.org/2000/svg">
<g clip-path="url(#clip0_287_1984)">
<path d="M9 10H11V11H9V10ZM11 6H9V7H11V6ZM9 15H11V14H9V15ZM21.5 5H19V2.5C19 1.122 17.879 0 16.5 0H7.5C6.121 0 5 1.122 5 2.5V5.931L6 6.951V2.5C6 1.673 6.673 1 7.5 1H16.5C17.327 1 18 1.673 18 2.5V6H21.5C22.327 6 23 6.673 23 7.5V23H6V18.049L5 19.097V24H24V7.5C24 6.122 22.879 5 21.5 5ZM8 12.5C8 12.128 7.855 11.78 7.601 11.526L4.862 8.654L4.139 9.344L6.671 11.999H0V12.999H6.671L4.139 15.654L4.862 16.344L7.593 13.481C7.856 13.219 8 12.87 8 12.499V12.5ZM9 19H11V18H9V19ZM13 19H15V18H13V19ZM18 15H20V14H18V15ZM20 10H18V11H20V10ZM18 19H20V18H18V19ZM13 15H15V14H13V15ZM15 6H13V7H15V6ZM13 11H15V10H13V11Z" fill="black"/>
</g>
<defs>
<clipPath id="clip0_287_1984">
<rect width="24" height="24" fill="white"/>
</clipPath>
</defs>
</svg>
