<svg width="32" height="32" viewBox="0 0 32 32" fill="none" xmlns="http://www.w3.org/2000/svg">
<path d="M5.66929 13.3333C5.4453 14.2045 5.33241 15.1005 5.33329 16C5.33329 16.92 5.45063 17.8133 5.66929 18.6666H9.46663C9.2884 16.8933 9.2884 15.1066 9.46663 13.3333H5.66929ZM6.75996 10.6666H9.88796C10.2426 9.04396 10.7546 7.59063 11.3826 6.38129C9.4471 7.3142 7.83657 8.8072 6.75996 10.6666ZM26.3306 13.3333H22.5333C22.7115 15.1066 22.7115 16.8933 22.5333 18.6666H26.3306C26.7793 16.9172 26.7793 15.0828 26.3306 13.3333ZM25.24 10.6666C24.1633 8.8072 22.5528 7.3142 20.6173 6.38129C21.2466 7.59063 21.7573 9.04396 22.112 10.6666H25.24ZM12.1493 13.3333C12.0501 14.2187 12.0002 15.109 12 16C12 16.9133 12.0506 17.8066 12.1493 18.6666H19.8506C20.051 16.8945 20.051 15.1054 19.8506 13.3333H12.1493ZM12.6266 10.6666H19.3733C19.1302 9.66448 18.7802 8.69134 18.3293 7.76396C17.492 6.09063 16.596 5.33329 16 5.33329C15.404 5.33329 14.508 6.09063 13.6706 7.76396C13.2506 8.60663 12.8973 9.58663 12.6266 10.6666ZM6.75996 21.3333C7.83657 23.1927 9.4471 24.6857 11.3826 25.6186C10.7533 24.4093 10.2426 22.956 9.88796 21.3333H6.75996ZM25.24 21.3333H22.112C21.7573 22.956 21.2453 24.4093 20.6173 25.6186C22.5528 24.6857 24.1633 23.1927 25.24 21.3333ZM12.6266 21.3333C12.8973 22.4133 13.2506 23.3933 13.6706 24.236C14.508 25.9093 15.404 26.6666 16 26.6666C16.596 26.6666 17.492 25.9093 18.3293 24.236C18.7493 23.3933 19.1026 22.4133 19.3733 21.3333H12.6266ZM16 29.3333C8.63596 29.3333 2.66663 23.364 2.66663 16C2.66663 8.63596 8.63596 2.66663 16 2.66663C23.364 2.66663 29.3333 8.63596 29.3333 16C29.3333 23.364 23.364 29.3333 16 29.3333Z" fill="#FFFFF5"/>
</svg>
