<svg width="62" height="61" viewBox="0 0 62 61" fill="none" xmlns="http://www.w3.org/2000/svg">
<path d="M31.5409 0H31.402C14.5957 0 0.971436 13.6242 0.971436 30.4305V30.5695C0.971436 47.3758 14.5957 61 31.402 61H31.5409C48.3472 61 61.9714 47.3758 61.9714 30.5695V30.4305C61.9714 13.6242 48.3472 0 31.5409 0Z" fill="black"/>
<path d="M29.1109 31.6497C28.5809 30.9851 27.9739 30.4764 27.2943 30.1323C27.8949 29.7669 28.412 29.3181 28.8395 28.7838C29.5597 27.8819 29.9251 26.7514 29.9251 25.4221C29.9251 24.3129 29.6323 23.2935 29.0532 22.3938C28.4761 21.4941 27.617 20.7717 26.4993 20.246C25.4051 19.7309 24.0865 19.4702 22.5841 19.4702H14.0377V41.5403H22.9773C24.4413 41.5403 25.7492 41.2732 26.8626 40.7474C27.9974 40.2132 28.8822 39.4652 29.4891 38.527C30.0982 37.5845 30.4081 36.5138 30.4081 35.3448C30.4081 33.9749 29.9721 32.7332 29.1109 31.6518V31.6497ZM24.5716 27.6276C24.0437 28.055 23.2722 28.273 22.2828 28.273H18.5855V23.3833H22.2828C23.268 23.3833 24.0352 23.6077 24.5631 24.0522C25.0696 24.4775 25.3153 25.0652 25.3153 25.8431C25.3153 26.621 25.0717 27.2237 24.5716 27.6276ZM18.5855 32.1883H22.5542C23.5928 32.1883 24.3921 32.4404 24.9969 32.9598C25.5761 33.4577 25.8582 34.1181 25.8582 34.9815C25.8582 35.8449 25.5974 36.454 25.0589 36.9092C24.5011 37.3815 23.6997 37.6208 22.6739 37.6208H18.5855V32.1883Z" fill="white"/>
<path d="M47.8684 27.9582C47.1803 26.7144 46.2058 25.7335 44.9705 25.0453C43.7374 24.3571 42.3119 24.0088 40.739 24.0088C39.1661 24.0088 37.6337 24.3678 36.3707 25.0752C35.1055 25.7847 34.1096 26.8042 33.4129 28.1099C32.7162 29.4136 32.3636 30.9438 32.3636 32.6577C32.3636 34.3717 32.7269 35.904 33.445 37.2055C34.163 38.5092 35.1675 39.535 36.4327 40.2531C37.6957 40.9712 39.1447 41.3345 40.7411 41.3345C42.7009 41.3345 44.3657 40.8365 45.6907 39.8556C47.0157 38.8746 47.9432 37.5966 48.4497 36.06L48.4861 35.9511H44.6093L44.5858 35.9981C43.84 37.509 42.547 38.2741 40.739 38.2741C39.4802 38.2741 38.4031 37.8745 37.5376 37.0901C36.6934 36.3229 36.2083 35.2971 36.095 34.0383H48.7724L48.7831 33.9678C48.8643 33.4613 48.9049 32.8885 48.9049 32.2666C48.9049 30.651 48.5566 29.202 47.8684 27.9582ZM37.5974 28.1805C38.4223 27.4431 39.4289 27.0713 40.5872 27.0713C41.8674 27.0713 42.9552 27.4496 43.8207 28.1976C44.6628 28.9242 45.1094 29.9008 45.1479 31.0976H36.1313C36.3023 29.8816 36.796 28.9007 37.5995 28.1826L37.5974 28.1805Z" fill="white"/>
<path d="M44.8552 19.9766H36.4114V21.9769H44.8552V19.9766Z" fill="white"/>
</svg>
