<svg width="62" height="61" viewBox="0 0 62 61" fill="none" xmlns="http://www.w3.org/2000/svg">
<path d="M31.5409 0H31.402C14.5957 0 0.971436 13.6242 0.971436 30.4305V30.5695C0.971436 47.3758 14.5957 61 31.402 61H31.5409C48.3472 61 61.9714 47.3758 61.9714 30.5695V30.4305C61.9714 13.6242 48.3472 0 31.5409 0Z" fill="#EA4C89"/>
<path d="M50.6083 31.2936C50.6126 31.2273 50.6147 31.1589 50.6169 31.0906L50.6532 30.2421L50.6212 30.2336C50.5592 25.7499 48.9606 21.5013 46.0776 18.1075L46.1118 18.0712L45.2036 17.1373C41.5598 13.3952 36.6807 11.335 31.4618 11.335C28.7819 11.335 26.2045 11.8757 23.7831 12.9378L23.7639 12.9228L22.9774 13.3118C21.9367 13.8269 20.9536 14.4295 20.0368 15.1113C19.4255 15.5665 18.8442 16.0537 18.2929 16.5752C18.0877 16.7697 17.8889 16.9684 17.6923 17.1715C14.9974 19.9561 13.168 23.5273 12.5376 27.4339L12.3346 28.6991L12.3794 28.7098C12.3239 29.3039 12.2939 29.9045 12.2939 30.5028C12.2939 35.5828 14.3199 40.4533 17.8868 44.033L17.8718 44.0608L18.6711 44.7767C22.191 47.9311 26.7324 49.6707 31.4597 49.6707C31.7952 49.6707 32.1286 49.6622 32.4599 49.6451C34.7851 49.5276 37.0355 48.9933 39.1598 48.0594C39.1598 48.0594 39.1619 48.0594 39.164 48.0594L39.9954 47.6939V47.6683C46.1824 44.5801 50.3134 38.2692 50.6062 31.347C50.6062 31.3449 50.6062 31.3427 50.6062 31.3406C50.6062 31.3385 50.6062 31.3342 50.6062 31.3321V31.3021L50.6083 31.2936ZM47.8002 32.3408C47.7916 32.4092 47.7831 32.4776 47.7745 32.5459C47.7596 32.6635 47.7446 32.781 47.7275 32.8964C47.7168 32.9712 47.704 33.046 47.6912 33.1208C47.6741 33.2298 47.6548 33.3388 47.6356 33.4478C47.6206 33.5269 47.6057 33.6038 47.5886 33.6829C47.5672 33.7876 47.548 33.8923 47.5245 33.9949C47.5074 34.074 47.4881 34.1531 47.4689 34.2321C47.4454 34.3347 47.4198 34.4352 47.3941 34.5356C47.3727 34.6147 47.3514 34.6959 47.33 34.775C47.3022 34.8733 47.2744 34.9737 47.2466 35.072C47.2231 35.1511 47.1996 35.2323 47.174 35.3114C47.1441 35.4097 47.112 35.5059 47.0821 35.6042C47.0564 35.6832 47.0287 35.7623 47.0009 35.8414C46.9667 35.9376 46.9325 36.0337 46.8983 36.1299C46.8705 36.2068 46.8406 36.2859 46.8107 36.3629C46.7743 36.459 46.7359 36.5531 46.6974 36.6492C46.6675 36.7262 46.6354 36.801 46.6034 36.8779C46.5628 36.9719 46.5222 37.066 46.4794 37.16C46.4452 37.2348 46.4132 37.3096 46.379 37.3823C46.3341 37.4763 46.2892 37.5703 46.2443 37.6644C46.2101 37.737 46.1738 37.8076 46.1375 37.8802C46.0905 37.9742 46.0392 38.0683 45.99 38.1623C45.9537 38.2307 45.9174 38.2991 45.881 38.3675C45.8276 38.4637 45.772 38.5598 45.7165 38.656C45.6801 38.7201 45.6438 38.7842 45.6075 38.8462C45.5455 38.9509 45.4814 39.0556 45.4173 39.1582C45.3852 39.2095 45.3532 39.2629 45.3211 39.3164C45.2313 39.4574 45.1394 39.5963 45.0454 39.7352C45.0368 39.7502 45.0262 39.763 45.0176 39.778C44.9129 39.9297 44.8061 40.0793 44.6971 40.2289C44.665 40.2717 44.6308 40.3144 44.5987 40.3572C44.5218 40.4619 44.4427 40.5644 44.3637 40.667C44.3209 40.7226 44.276 40.776 44.2312 40.8316C44.1606 40.9192 44.088 41.009 44.0153 41.0944C43.9662 41.1522 43.9149 41.2099 43.8657 41.2676C43.7952 41.3488 43.7247 41.43 43.652 41.5112C43.5986 41.571 43.5451 41.6287 43.4917 41.6864C43.4212 41.7634 43.3485 41.8403 43.2759 41.9173C43.2203 41.975 43.1626 42.0327 43.1049 42.0904C43.0322 42.163 42.9596 42.2378 42.8848 42.3105C42.8249 42.3682 42.7672 42.4238 42.7074 42.4815C42.6326 42.552 42.5578 42.6225 42.483 42.6909C42.421 42.7465 42.359 42.802 42.2971 42.8576C42.2201 42.926 42.1432 42.9922 42.0641 43.0585C42 43.1119 41.938 43.1653 41.8718 43.2188C41.7927 43.2829 41.7136 43.3491 41.6324 43.4111C41.5683 43.4624 41.5021 43.5137 41.4358 43.565C41.3546 43.6269 41.2712 43.6889 41.19 43.7509C41.1238 43.8001 41.0554 43.8492 40.9891 43.8984C40.9058 43.9582 40.8203 44.018 40.7348 44.0757C40.6664 44.1228 40.6002 44.1698 40.5318 44.2147C40.4442 44.2724 40.3544 44.3301 40.2668 44.3856C40.1984 44.4284 40.13 44.4732 40.0616 44.516C39.9975 44.5566 39.9313 44.5929 39.865 44.6335C39.5551 40.5901 38.649 36.4035 37.2107 32.3771C40.7733 31.5757 44.3893 31.55 47.8044 32.3109C47.8044 32.3215 47.8044 32.3322 47.8023 32.3408H47.8002ZM36.2105 29.8168C35.7275 28.6735 35.2103 27.5558 34.6547 26.4744C38.2322 24.848 41.4785 22.6617 44.1713 20.0694C46.3854 22.76 47.6741 26.0534 47.8728 29.5433C44.0922 28.7846 40.1129 28.8786 36.2084 29.8168H36.2105ZM15.4996 26.5235C15.5616 26.2735 15.63 26.0234 15.7048 25.7777C15.7176 25.7328 15.7326 25.6858 15.7454 25.6409C15.8202 25.3994 15.8993 25.16 15.9848 24.9228C15.9912 24.9057 15.9954 24.8908 16.0019 24.8737C16.0125 24.8437 16.0232 24.8138 16.0339 24.7839C16.1215 24.5488 16.2134 24.318 16.3096 24.0872C16.3246 24.053 16.3374 24.0209 16.3523 23.9867C16.3545 23.9803 16.3588 23.9739 16.3609 23.9654C16.4613 23.7324 16.5682 23.4995 16.6815 23.2708C16.6986 23.2345 16.7178 23.1982 16.7349 23.1597C16.8503 22.9289 16.97 22.7023 17.0961 22.4779C17.1153 22.4416 17.1345 22.4074 17.1559 22.3732C17.2799 22.1552 17.4102 21.9394 17.5449 21.7257C17.5598 21.7022 17.5748 21.6787 17.5897 21.6551C17.5983 21.6402 17.609 21.6252 17.6197 21.6103C17.7564 21.3966 17.8996 21.1871 18.045 20.9819C18.0706 20.9456 18.0984 20.9072 18.124 20.8708C18.2736 20.6635 18.4296 20.4584 18.5899 20.2575C18.6156 20.2254 18.6433 20.1933 18.669 20.1613C18.8314 19.9604 18.9981 19.7617 19.1712 19.5672C19.1926 19.5415 19.2161 19.518 19.2375 19.4924C19.4148 19.2936 19.5986 19.1013 19.7867 18.9111C19.8081 18.8897 19.8273 18.8705 19.8487 18.8491C20.0325 18.6674 20.2184 18.4879 20.4108 18.3148C20.4278 18.2999 20.4449 18.2828 20.462 18.2678C20.4727 18.2593 20.4813 18.2507 20.492 18.2422C20.6843 18.0712 20.8809 17.9045 21.0797 17.7399C21.1117 17.7143 21.1438 17.6865 21.1758 17.6609C21.3789 17.4984 21.584 17.3424 21.7956 17.1885C21.8319 17.1629 21.8683 17.1351 21.9067 17.1095C22.1183 16.9577 22.3342 16.8103 22.5543 16.6692C22.5885 16.6479 22.6248 16.6243 22.659 16.603C22.8855 16.4598 23.1142 16.3209 23.3493 16.1884C23.3664 16.1798 23.3835 16.1691 23.4006 16.1606C26.1511 18.5542 28.6707 21.6103 30.7737 25.1002C25.7001 26.8847 20.3424 27.4019 15.4847 26.577C15.4889 26.5577 15.4932 26.5406 15.4975 26.5214L15.4996 26.5235ZM32.2547 14.0748C32.3423 14.079 32.4299 14.0876 32.5176 14.0919C32.6949 14.1025 32.8702 14.1154 33.0454 14.1303C33.148 14.141 33.2506 14.1538 33.3532 14.1645C33.5113 14.1816 33.6695 14.2008 33.8276 14.2244C33.9366 14.2393 34.0435 14.2585 34.1503 14.2756C34.3021 14.3013 34.4517 14.3269 34.6013 14.3547C34.7103 14.3761 34.8193 14.3975 34.9282 14.421C35.0757 14.453 35.2232 14.4851 35.3685 14.5214C35.4775 14.5471 35.5843 14.5748 35.6912 14.6026C35.8365 14.6411 35.9818 14.6817 36.1272 14.7244C36.2319 14.7544 36.3366 14.7864 36.4413 14.8185C36.5888 14.8655 36.7362 14.9146 36.8837 14.9659C36.982 15.0001 37.0803 15.0322 37.1786 15.0685C37.3368 15.1284 37.4949 15.1903 37.6509 15.2545C37.7343 15.2886 37.8176 15.3186 37.8988 15.3549C38.1232 15.4511 38.3455 15.5515 38.5656 15.6562C38.587 15.6669 38.6105 15.6776 38.6319 15.6883C38.8542 15.7951 39.0743 15.9084 39.2901 16.026C39.3692 16.0687 39.4461 16.1136 39.5231 16.1585C39.6705 16.2418 39.818 16.3252 39.9655 16.4149C40.0552 16.4683 40.1407 16.526 40.2283 16.5816C40.3608 16.665 40.4912 16.7483 40.6216 16.8359C40.7135 16.8979 40.8032 16.962 40.893 17.024C41.0169 17.1116 41.1409 17.1992 41.2627 17.2911C41.3525 17.3574 41.4401 17.4258 41.5298 17.4942C41.6495 17.5882 41.7692 17.6822 41.8867 17.7784C41.9722 17.8489 42.0577 17.9216 42.1432 17.9942C42.1881 18.0327 42.233 18.0755 42.2778 18.1139C39.7603 20.5374 36.7063 22.572 33.3361 24.0787C31.2759 20.5802 28.8139 17.4706 26.1105 14.9382C27.8202 14.3483 29.6111 14.0491 31.4576 14.0491C31.7247 14.0491 31.9897 14.0555 32.2547 14.0683V14.0748ZM15.0594 29.2655C16.7092 29.5433 18.4083 29.6822 20.1308 29.6822C24.1016 29.6822 28.2027 28.9513 32.1222 27.513C32.6394 28.5068 33.1267 29.5305 33.5797 30.5819C33.3511 30.6589 33.1245 30.7358 32.898 30.8192C27.1491 32.9456 22.3855 36.7304 19.2973 41.5668C16.5575 38.5555 15.0124 34.6083 15.0124 30.5007C15.0124 30.0883 15.0295 29.6758 15.0594 29.2655ZM30.7309 46.9288C30.6519 46.9245 30.5728 46.9181 30.4937 46.9139C30.3313 46.9053 30.171 46.8946 30.0086 46.8797C29.9145 46.8711 29.8227 46.8604 29.7286 46.8497C29.5833 46.8348 29.4358 46.8177 29.2905 46.7984C29.1922 46.7856 29.0939 46.7707 28.9956 46.7557C28.8567 46.7343 28.7178 46.713 28.5788 46.6873C28.4784 46.6702 28.378 46.651 28.2797 46.6296C28.1429 46.6018 28.0082 46.574 27.8736 46.5441C27.7731 46.5228 27.6748 46.4993 27.5765 46.4757C27.4419 46.4437 27.3073 46.4073 27.1748 46.3732C27.0764 46.3475 26.9803 46.3197 26.8841 46.2919C26.7495 46.2535 26.6148 46.2107 26.4802 46.168C26.3862 46.1381 26.2943 46.1103 26.2002 46.0782C26.0613 46.0312 25.9224 45.9799 25.7856 45.9308C25.7001 45.8987 25.6125 45.8688 25.527 45.8346C25.3774 45.7769 25.2278 45.7149 25.0782 45.6508C25.0077 45.6209 24.9372 45.5931 24.8667 45.5632C24.6529 45.4692 24.4414 45.3708 24.2319 45.2683C24.2277 45.2683 24.2234 45.264 24.2191 45.2618C24.0033 45.1571 23.7917 45.046 23.5801 44.9306C23.5181 44.8964 23.4562 44.8579 23.392 44.8237C23.2467 44.7425 23.1014 44.6592 22.9582 44.5737C22.8813 44.5267 22.8043 44.4775 22.7274 44.4284C22.6013 44.3493 22.4752 44.2702 22.3513 44.1869C22.2701 44.1334 22.1888 44.0757 22.1098 44.0202C21.9922 43.939 21.8768 43.8578 21.7614 43.7723C21.6781 43.7124 21.5969 43.6505 21.5156 43.5885C21.4537 43.5415 21.3917 43.4923 21.3297 43.4432C24.0845 38.9039 28.4912 35.3499 33.8447 33.3687C34.0884 33.279 34.3363 33.1956 34.5842 33.1123C36.1101 37.3224 37.0162 41.7185 37.2214 45.9051C36.9842 45.9949 36.7448 46.0782 36.5054 46.1552C36.4413 46.1765 36.3751 46.1936 36.311 46.2129C36.1229 46.2706 35.9327 46.3283 35.7425 46.3796C35.6485 46.4052 35.5523 46.4266 35.4561 46.4522C35.2937 46.4928 35.1313 46.5313 34.9667 46.5676C34.8641 46.5911 34.7594 46.6104 34.6547 46.6318C34.4965 46.6638 34.3384 46.6916 34.1781 46.7194C34.0734 46.7365 33.9665 46.7536 33.8597 46.7685C33.6973 46.792 33.5348 46.8134 33.3703 46.8326C33.2677 46.8433 33.1673 46.8561 33.0647 46.8668C32.8852 46.8839 32.7056 46.8968 32.5261 46.9074C32.4385 46.9138 32.353 46.9203 32.2654 46.9245C31.9982 46.9374 31.729 46.9459 31.4597 46.9459C31.2161 46.9459 30.9746 46.9395 30.7331 46.9288H30.7309Z" fill="white"/>
</svg>
