<svg width="62" height="61" viewBox="0 0 62 61" fill="none" xmlns="http://www.w3.org/2000/svg">
<path d="M61.9714 30.5011C61.9714 45.9055 50.5528 58.6406 35.719 60.7072C34.332 60.8996 32.9129 61 31.4725 61C29.8098 61 28.1771 60.8675 26.587 60.611C12.0631 58.273 0.971436 45.6811 0.971436 30.5011C0.971436 13.6562 14.6277 0 31.4704 0C48.3131 0 61.9714 13.6562 61.9714 30.5011Z" fill="#1877F2"/>
<path d="M35.7189 24.49V31.1343H43.9383L42.6368 40.0846H35.7189V60.7057C34.3319 60.8981 32.9129 60.9985 31.4725 60.9985C29.8098 60.9985 28.177 60.866 26.587 60.6096V40.0846H19.0066V31.1343H26.587V23.0047C26.587 17.9611 30.6753 13.8706 35.7211 13.8706V13.8749C35.736 13.8749 35.7489 13.8706 35.7638 13.8706H43.9405V21.6113H38.5976C37.0098 21.6113 35.7211 22.9 35.7211 24.4879L35.7189 24.49Z" fill="white"/>
</svg>
