<svg width="33" height="32" viewBox="0 0 33 32" fill="none" xmlns="http://www.w3.org/2000/svg">
<path fill-rule="evenodd" clip-rule="evenodd" d="M31.86 16.3638C31.86 15.2292 31.7582 14.1383 31.5691 13.0911H16.5V19.2802H25.1109C24.74 21.2802 23.6127 22.9747 21.9182 24.1092V28.1238H27.0891C30.1145 25.3383 31.86 21.2365 31.86 16.3638Z" fill="#4285F4"/>
<path fill-rule="evenodd" clip-rule="evenodd" d="M16.4998 32C20.8198 32 24.4417 30.5673 27.0889 28.1237L21.918 24.1091C20.4853 25.0691 18.6526 25.6364 16.4998 25.6364C12.3326 25.6364 8.80529 22.8219 7.54711 19.04H2.20166V23.1855C4.83439 28.4146 10.2453 32 16.4998 32Z" fill="#34A853"/>
<path fill-rule="evenodd" clip-rule="evenodd" d="M7.54727 19.0401C7.22727 18.0801 7.04545 17.0547 7.04545 16.0001C7.04545 14.9456 7.22727 13.9201 7.54727 12.9602V8.8147H2.20182C1.11818 10.9747 0.5 13.4183 0.5 16.0001C0.5 18.582 1.11818 21.0256 2.20182 23.1856L7.54727 19.0401Z" fill="#FBBC05"/>
<path fill-rule="evenodd" clip-rule="evenodd" d="M16.4998 6.36364C18.8489 6.36364 20.958 7.17091 22.6162 8.75636L27.2053 4.16727C24.4344 1.58545 20.8126 0 16.4998 0C10.2453 0 4.83439 3.58545 2.20166 8.81454L7.54711 12.96C8.80529 9.17818 12.3326 6.36364 16.4998 6.36364Z" fill="#EA4335"/>
</svg>
