<svg width="62" height="61" viewBox="0 0 62 61" fill="none" xmlns="http://www.w3.org/2000/svg">
<path d="M31.5409 0H31.402C14.5957 0 0.971436 13.6242 0.971436 30.4305V30.5695C0.971436 47.3758 14.5957 61 31.402 61H31.5409C48.3472 61 61.9714 47.3758 61.9714 30.5695V30.4305C61.9714 13.6242 48.3472 0 31.5409 0Z" fill="url(#paint0_linear_347_36178)"/>
<path d="M40.9101 12.4111H22.035C16.8204 12.4111 12.5782 16.6533 12.5782 21.8679V39.1359C12.5782 44.3505 16.8204 48.5927 22.035 48.5927H40.9101C46.1247 48.5927 50.3669 44.3505 50.3669 39.1359V21.8679C50.3669 16.6533 46.1247 12.4111 40.9101 12.4111ZM15.9143 21.8679C15.9143 18.4934 18.6605 15.7472 22.035 15.7472H40.9101C44.2847 15.7472 47.0309 18.4934 47.0309 21.8679V39.1359C47.0309 42.5104 44.2847 45.2566 40.9101 45.2566H22.035C18.6605 45.2566 15.9143 42.5104 15.9143 39.1359V21.8679Z" fill="white"/>
<path d="M31.4725 39.2959C36.3216 39.2959 40.2689 35.3508 40.2689 30.4995C40.2689 25.6483 36.3238 21.7031 31.4725 21.7031C26.6212 21.7031 22.6761 25.6483 22.6761 30.4995C22.6761 35.3508 26.6212 39.2959 31.4725 39.2959ZM31.4725 25.0413C34.4837 25.0413 36.9328 27.4905 36.9328 30.5017C36.9328 33.5129 34.4837 35.962 31.4725 35.962C28.4613 35.962 26.0121 33.5129 26.0121 30.5017C26.0121 27.4905 28.4613 25.0413 31.4725 25.0413Z" fill="white"/>
<path d="M41.0833 23.123C42.3891 23.123 43.4534 22.0608 43.4534 20.7529C43.4534 19.445 42.3913 18.3828 41.0833 18.3828C39.7754 18.3828 38.7133 19.445 38.7133 20.7529C38.7133 22.0608 39.7754 23.123 41.0833 23.123Z" fill="white"/>
<defs>
<linearGradient id="paint0_linear_347_36178" x1="9.88325" y1="52.0882" x2="53.0596" y2="8.91396" gradientUnits="userSpaceOnUse">
<stop stop-color="#FAAD4F"/>
<stop offset="0.35" stop-color="#DD2A7B"/>
<stop offset="0.62" stop-color="#9537B0"/>
<stop offset="1" stop-color="#515BD4"/>
</linearGradient>
</defs>
</svg>
