<svg width="62" height="61" viewBox="0 0 62 61" fill="none" xmlns="http://www.w3.org/2000/svg">
<path d="M31.5409 0H31.402C14.5957 0 0.971436 13.6242 0.971436 30.4305V30.5695C0.971436 47.3758 14.5957 61 31.402 61H31.5409C48.3472 61 61.9714 47.3758 61.9714 30.5695V30.4305C61.9714 13.6242 48.3472 0 31.5409 0Z" fill="#007EBB"/>
<path d="M15.5189 20.2778C14.7154 19.532 14.3157 18.6087 14.3157 17.5102C14.3157 16.4118 14.7175 15.4479 15.5189 14.6999C16.3225 13.9541 17.3568 13.5801 18.6242 13.5801C19.8915 13.5801 20.8853 13.9541 21.6867 14.6999C22.4902 15.4458 22.8899 16.384 22.8899 17.5102C22.8899 18.6365 22.4881 19.532 21.6867 20.2778C20.8831 21.0237 19.8637 21.3977 18.6242 21.3977C17.3846 21.3977 16.3225 21.0237 15.5189 20.2778ZM22.2145 24.5564V47.4236H14.9889V24.5564H22.2145Z" fill="#FEFFFC"/>
<path d="M46.2678 26.815C47.8429 28.5247 48.6294 30.8713 48.6294 33.859V47.0194H41.7671V34.7865C41.7671 33.2799 41.376 32.1087 40.596 31.2752C39.8159 30.4417 38.7644 30.0229 37.448 30.0229C36.1315 30.0229 35.08 30.4396 34.2999 31.2752C33.5199 32.1087 33.1288 33.2799 33.1288 34.7865V47.0194H26.2259V24.492H33.1288V27.4797C33.8276 26.4838 34.7702 25.6973 35.9541 25.1182C37.1381 24.539 38.4695 24.2505 39.9505 24.2505C42.5877 24.2505 44.6949 25.1053 46.2678 26.815Z" fill="#FEFFFC"/>
</svg>
