<svg width="62" height="61" viewBox="0 0 62 61" fill="none" xmlns="http://www.w3.org/2000/svg">
<path d="M61.9672 30.5011C61.9672 45.9055 50.5489 58.6406 35.7156 60.7072C34.3287 60.8996 32.9097 61 31.4693 61C29.8067 61 28.174 60.8675 26.584 60.611C12.0627 58.273 0.971436 45.6811 0.971436 30.5011C0.971436 13.6562 14.6272 0 31.4714 0C48.3157 0 61.9714 13.6562 61.9714 30.5011H61.9672Z" fill="#1C1C1B"/>
<path d="M13.3408 13.4497L27.4068 32.2564L13.2531 47.5476H16.4395L28.8323 34.1606L38.8443 47.5476H49.6856L34.8288 27.683L48.0038 13.4497H44.8174L33.4055 25.7788L24.1842 13.4497H13.3429H13.3408ZM18.0252 15.7963H23.0045L44.9969 45.201H40.0176L18.0252 15.7963Z" fill="white"/>
</svg>
