<svg width="41" height="40" viewBox="0 0 41 40" fill="none" xmlns="http://www.w3.org/2000/svg">
<path d="M1.38667 18.3266C1.42167 18.3316 1.46 18.3333 1.495 18.3333C1.90667 18.3333 2.265 18.0266 2.32 17.6066C2.63 15.2333 3.40333 12.9949 4.58667 10.9266C5.34167 11.3849 6.21833 11.6649 7.165 11.6649C9.92167 11.6649 12.165 9.42161 12.165 6.66495C12.165 5.71828 11.885 4.84161 11.4267 4.08661C13.4967 2.90328 15.735 2.12828 18.105 1.81995C18.56 1.75995 18.8833 1.34328 18.825 0.886614C18.765 0.429947 18.3317 0.103281 17.89 0.168281C15.1883 0.519947 12.64 1.41328 10.3017 2.80495C9.44167 2.10328 8.35833 1.66661 7.16333 1.66661C4.40667 1.66661 2.16333 3.90995 2.16333 6.66661C2.16333 7.85995 2.60167 8.94328 3.30167 9.80495C1.915 12.1416 1.02 14.6899 0.668334 17.3933C0.61 17.8483 0.928334 18.2666 1.38667 18.3266ZM7.16667 3.33328C9.005 3.33328 10.5 4.82828 10.5 6.66661C10.5 8.50495 9.005 9.99995 7.16667 9.99995C5.32833 9.99995 3.83333 8.50495 3.83333 6.66661C3.83333 4.82828 5.32833 3.33328 7.16667 3.33328ZM18.1067 38.1783C15.7367 37.8699 13.4967 37.095 11.4283 35.9116C11.8867 35.1566 12.1667 34.2799 12.1667 33.3333C12.1667 30.5766 9.92333 28.3333 7.16667 28.3333C6.22 28.3333 5.34333 28.6133 4.58833 29.0716C3.40667 27.0033 2.63167 24.7649 2.32167 22.3933C2.26167 21.9366 1.83333 21.6099 1.38667 21.6749C0.93 21.7349 0.608334 22.1533 0.666667 22.6083C1.02 25.3116 1.91333 27.8599 3.305 30.1966C2.60333 31.0566 2.16667 32.1399 2.16667 33.3349C2.16667 36.0916 4.41 38.3349 7.16667 38.3349C8.36 38.3349 9.44333 37.8966 10.305 37.1966C12.6433 38.5883 15.1917 39.4816 17.8933 39.8333C17.9283 39.8383 17.9667 39.8399 18.0017 39.8399C18.4133 39.8399 18.7717 39.5333 18.8267 39.1133C18.885 38.6566 18.5633 38.24 18.1067 38.18V38.1783ZM7.16667 36.6666C5.32833 36.6666 3.83333 35.1716 3.83333 33.3333C3.83333 31.4949 5.32833 29.9999 7.16667 29.9999C9.005 29.9999 10.5 31.4949 10.5 33.3333C10.5 35.1716 9.005 36.6666 7.16667 36.6666ZM39.6133 21.6733C39.1683 21.6083 38.74 21.9349 38.6783 22.3916C38.3683 24.7633 37.595 27.0016 36.4117 29.0699C35.6567 28.6116 34.78 28.3316 33.8333 28.3316C31.0767 28.3316 28.8333 30.5749 28.8333 33.3316C28.8333 34.2783 29.1133 35.1549 29.5717 35.9099C27.5017 37.0933 25.2633 37.8683 22.8933 38.1766C22.4383 38.2366 22.115 38.6533 22.1733 39.1099C22.2283 39.5299 22.5867 39.8366 22.9983 39.8366C23.0333 39.8366 23.0717 39.8349 23.1067 39.8299C25.8083 39.4783 28.3567 38.5849 30.695 37.1933C31.555 37.895 32.6383 38.3316 33.8333 38.3316C36.59 38.3316 38.8333 36.0883 38.8333 33.3316C38.8333 32.1383 38.395 31.0566 37.695 30.195C39.085 27.8566 39.9783 25.3083 40.3317 22.6049C40.39 22.1499 40.07 21.7316 39.6117 21.6716L39.6133 21.6733ZM33.8333 36.6666C31.995 36.6666 30.5 35.1716 30.5 33.3333C30.5 31.4949 31.995 29.9999 33.8333 29.9999C35.6717 29.9999 37.1667 31.4949 37.1667 33.3333C37.1667 35.1716 35.6717 36.6666 33.8333 36.6666ZM22.8933 1.82161C25.2633 2.12995 27.5033 2.90495 29.5717 4.08828C29.1133 4.84328 28.8333 5.71995 28.8333 6.66661C28.8333 9.42328 31.0767 11.6666 33.8333 11.6666C34.78 11.6666 35.6567 11.3866 36.4117 10.9283C37.5933 12.9966 38.3683 15.2349 38.6783 17.6066C38.7333 18.0266 39.0917 18.3333 39.5033 18.3333C39.5383 18.3333 39.5767 18.3316 39.6117 18.3266C40.0683 18.2666 40.39 17.8483 40.3317 17.3933C39.9783 14.6899 39.085 12.1416 37.6933 9.80495C38.395 8.94495 38.8317 7.86161 38.8317 6.66661C38.8317 3.90995 36.5883 1.66661 33.8317 1.66661C32.6383 1.66661 31.555 2.10495 30.6933 2.80495C28.355 1.41328 25.8067 0.519947 23.105 0.168281C22.655 0.103281 22.2317 0.429947 22.17 0.886614C22.1117 1.34328 22.4333 1.75995 22.89 1.81995L22.8933 1.82161ZM33.8333 3.33328C35.6717 3.33328 37.1667 4.82828 37.1667 6.66661C37.1667 8.50495 35.6717 9.99995 33.8333 9.99995C31.995 9.99995 30.5 8.50495 30.5 6.66661C30.5 4.82828 31.995 3.33328 33.8333 3.33328ZM20.2067 7.25495C19.8817 6.92828 19.885 6.39995 20.21 6.07495C20.5367 5.74995 21.065 5.75495 21.3883 6.07828L25.065 9.78161C25.315 10.0316 25.5 10.4466 25.5 10.8333C25.5 11.2199 25.3167 11.6333 25.065 11.8849L21.3883 15.5866C21.225 15.7499 21.0117 15.8316 20.7983 15.8316C20.5867 15.8316 20.3733 15.7516 20.21 15.5899C19.885 15.2649 19.8817 14.7383 20.2067 14.4099L22.9317 11.6649H20.4983C15.9033 11.6649 12.165 15.4033 12.165 19.9983C12.165 21.3333 12.4717 22.6083 13.0733 23.7849C13.2833 24.1949 13.12 24.6966 12.71 24.9066C12.59 24.9683 12.46 24.9983 12.33 24.9983C12.0267 24.9983 11.7367 24.8333 11.5883 24.5449C10.8633 23.1299 10.4983 21.6016 10.4983 19.9983C10.4983 14.4833 14.9833 9.99828 20.4983 9.99828H22.9317L20.2067 7.25495ZM20.7933 32.7466C21.1183 33.0733 21.115 33.6016 20.79 33.9266C20.6267 34.0883 20.4133 34.1683 20.2017 34.1683C19.9867 34.1683 19.7733 34.0866 19.6117 33.9233L15.935 30.2199C15.685 29.9699 15.5 29.5516 15.5 29.1683C15.5 28.7849 15.6833 28.3683 15.935 28.1166L19.6117 24.4149C19.935 24.0899 20.4633 24.0849 20.79 24.4116C21.115 24.7366 21.1183 25.2633 20.7933 25.5916L18.0683 28.3366H20.5017C25.0967 28.3366 28.835 24.5983 28.835 20.0033C28.835 18.6683 28.5283 17.3933 27.9267 16.2166C27.7167 15.8066 27.88 15.3049 28.29 15.0949C28.6967 14.8883 29.2017 15.0483 29.4117 15.4583C30.1367 16.8733 30.5017 18.4016 30.5017 20.0049C30.5017 25.5199 26.0167 30.0049 20.5017 30.0049H18.0683L20.7933 32.7499V32.7466Z" fill="url(#paint0_linear_50_111)"/>
<defs>
<linearGradient id="paint0_linear_50_111" x1="0.659836" y1="0.160034" x2="47.0325" y2="10.8782" gradientUnits="userSpaceOnUse">
<stop offset="0.0154944" stop-color="#AE8625"/>
<stop offset="0.329993" stop-color="#F7EF8A"/>
<stop offset="0.664996" stop-color="#D2AC47"/>
<stop offset="1" stop-color="#EDC967"/>
</linearGradient>
</defs>
</svg>
