<svg width="40" height="40" viewBox="0 0 40 40" fill="none" xmlns="http://www.w3.org/2000/svg">
<path d="M4.16667 4.16667C4.16667 1.86667 6.03333 0 8.33333 0C10.6333 0 12.5 1.865 12.5 4.16667C12.5 6.46833 10.635 8.33333 8.33333 8.33333C6.03167 8.33333 4.16667 6.46833 4.16667 4.16667ZM12.2233 24.1517C11.6133 24.6983 10.8233 25 10 25H6.66667C4.82833 25 3.33333 23.505 3.33333 21.6667V16.6667C3.33333 14.8283 4.82833 13.3333 6.66667 13.3333C7.58833 13.3333 8.33333 12.5883 8.33333 11.6667C8.33333 10.745 7.58833 10 6.66667 10C2.99 10 0 12.99 0 16.6667V21.6667C0 24.1233 1.35 26.25 3.33333 27.4067V38.3333C3.33333 39.255 4.07833 40 5 40C5.92167 40 6.66667 39.255 6.66667 38.3333V28.3333H10V38.3333C10 39.255 10.745 40 11.6667 40C12.5883 40 13.3333 39.255 13.3333 38.3333V27.4283C13.7267 27.2017 14.1033 26.9433 14.4467 26.635C15.1317 26.0217 15.19 24.9667 14.5767 24.2817C13.9633 23.595 12.905 23.54 12.2233 24.1517ZM31.6667 8.33333C33.9683 8.33333 35.8333 6.46833 35.8333 4.16667C35.8333 1.865 33.9683 0 31.6667 0C29.365 0 27.5 1.865 27.5 4.16667C27.5 6.46833 29.365 8.33333 31.6667 8.33333ZM33.3333 10C32.4117 10 31.6667 10.745 31.6667 11.6667C31.6667 12.5883 32.4117 13.3333 33.3333 13.3333C35.1717 13.3333 36.6667 14.8283 36.6667 16.6667V21.6667C36.6667 23.505 35.1717 25 33.3333 25H30C29.1783 25 28.3883 24.6983 27.7783 24.1517C27.0967 23.54 26.04 23.5967 25.425 24.2817C24.8117 24.9667 24.87 26.0217 25.555 26.635C25.8983 26.9417 26.2733 27.2 26.6667 27.4267V38.3317C26.6667 39.2533 27.4117 39.9983 28.3333 39.9983C29.255 39.9983 30 39.2533 30 38.3317V28.3317H33.3333V38.3317C33.3333 39.2533 34.0783 39.9983 35 39.9983C35.9217 39.9983 36.6667 39.2533 36.6667 38.3317V27.405C38.65 26.2483 40 24.1217 40 21.665V16.665C40 12.9883 37.01 10 33.3333 10ZM28.3333 13.6667C28.3333 16.895 25.1583 20.6317 23.1583 22.2283C22.2283 22.9683 21.1133 23.34 20 23.34C18.8867 23.34 17.775 22.9683 16.845 22.23C14.8417 20.6333 11.6667 16.8967 11.6667 13.6667C11.6667 10.725 13.91 8.33333 16.6667 8.33333C17.92 8.33333 19.1017 8.85167 20 9.67667C20.8983 8.85167 22.08 8.33333 23.3333 8.33333C26.09 8.33333 28.3333 10.7267 28.3333 13.6667ZM25 13.6667C25 12.5633 24.2533 11.6667 23.3333 11.6667C22.4133 11.6667 21.6667 12.5783 21.6667 13.3333C21.6667 14.255 20.9217 15 20 15C19.0783 15 18.3333 14.255 18.3333 13.3333C18.3333 12.5783 17.59 11.6667 16.6667 11.6667C15.7433 11.6667 15 12.5633 15 13.6667C15 15.285 17.0717 18.1467 18.9233 19.6217C19.5583 20.13 20.445 20.1233 21.08 19.6217C22.93 18.145 25.0017 15.2833 25.0017 13.6667H25Z" fill="url(#paint0_linear_50_83)"/>
<defs>
<linearGradient id="paint0_linear_50_83" x1="0" y1="0" x2="46.748" y2="10.8053" gradientUnits="userSpaceOnUse">
<stop offset="0.0154944" stop-color="#AE8625"/>
<stop offset="0.329993" stop-color="#F7EF8A"/>
<stop offset="0.664996" stop-color="#D2AC47"/>
<stop offset="1" stop-color="#EDC967"/>
</linearGradient>
</defs>
</svg>
