<svg width="40" height="40" viewBox="0 0 40 40" fill="none" xmlns="http://www.w3.org/2000/svg">
<path d="M14.5667 28.9833L13.3667 28.0833L15.5333 21.2833L10 18.2V16.6667H17.25L19.2167 9.16667H20.8333L22.8 16.6667H30.0167V18.2L24.5167 21.3833L26.7333 28.1L25.4833 28.9667L20.05 24.7667L14.6 28.9833H14.5667ZM40 20C40 8.96667 31.0333 0 20 0C8.96667 0 0 8.96667 0 20C0 31.0333 8.96667 40 20 40C31.0333 40 40 31.0333 40 20ZM36.6667 20C36.6667 29.1833 29.1833 36.6667 20 36.6667C10.8167 36.6667 3.33333 29.1833 3.33333 20C3.33333 10.8167 10.8167 3.33333 20 3.33333C29.1833 3.33333 36.6667 10.8167 36.6667 20Z" fill="url(#paint0_linear_50_70)"/>
<defs>
<linearGradient id="paint0_linear_50_70" x1="0" y1="0" x2="46.748" y2="10.8053" gradientUnits="userSpaceOnUse">
<stop offset="0.0154944" stop-color="#AE8625"/>
<stop offset="0.329993" stop-color="#F7EF8A"/>
<stop offset="0.664996" stop-color="#D2AC47"/>
<stop offset="1" stop-color="#EDC967"/>
</linearGradient>
</defs>
</svg>
