<svg width="41" height="40" viewBox="0 0 41 40" fill="none" xmlns="http://www.w3.org/2000/svg">
<g clip-path="url(#clip0_50_116)">
<path d="M20.5 16.6667C24.8233 16.7267 24.8233 9.94003 20.5 10C16.1767 9.94003 16.1767 16.7284 20.5 16.6667ZM20.5 11.6667C22.6617 11.6367 22.6617 15.03 20.5 15C18.3383 15.03 18.3383 11.6367 20.5 11.6667Z" fill="url(#paint0_linear_50_116)"/>
<path d="M37.9666 21.1466C42.2583 18.4716 39.8416 8.87164 39.4466 8.08498C38.4366 8.46831 38.4933 8.33998 36.995 9.18331C38.135 4.54831 28.7433 0.0283089 28.4183 -0.0250244C27.9883 1.31664 24.8033 7.18498 30.2816 14.2583C30.405 15.4566 30.53 16.6 30.4716 17.69L30.495 17.6966C29.9 38.9766 11.1266 38.9283 10.5066 17.6966L10.53 17.69C10.4716 16.6 10.595 15.4566 10.7183 14.2583C16.1966 7.17331 13.0116 1.32998 12.5816 -0.0250244C12.275 0.0166423 2.85331 4.55664 4.00497 9.18164C2.50664 8.33997 2.56331 8.46831 1.55331 8.08498C1.15831 8.85497 -1.25669 18.485 3.03331 21.1466C1.35331 21.585 1.41831 21.645 0.513306 22.0133C0.894972 23.1633 1.37331 26.6566 5.67164 29.7116C3.55831 31.3183 3.49164 31.6466 2.71664 32.5616C3.66664 33.39 5.61831 35.825 10.5083 36.58C9.80497 38.3333 9.90831 38.2583 9.66497 39.2883C13.0416 40.455 17.8733 40.6533 20.5 37.3833C23.1266 40.655 27.9616 40.4533 31.3366 39.2883C31.0933 38.26 31.195 38.3316 30.4916 36.58C35.3883 35.8216 37.325 33.3966 38.2833 32.5616C37.51 31.6483 37.44 31.315 35.3266 29.7116C39.63 26.65 40.1016 23.1716 40.4866 22.0133C39.5816 21.6433 39.6466 21.5833 37.9666 21.1466ZM5.85664 7.32164C7.19164 4.93331 10.22 3.06831 11.685 2.26998C12.2533 4.20998 13.1133 9.09998 9.18497 13.5166C7.85497 12.4466 4.62331 9.52998 5.85664 7.32164ZM2.73831 18.265C1.71831 15.6316 2.29831 12.035 2.66831 10.3483C4.81497 10.935 9.74331 16.5616 9.00997 21.155C6.68497 20.6883 3.77331 20.7916 2.73664 18.265H2.73831ZM2.53664 23.015C3.24831 22.8016 4.47164 22.4816 5.80831 22.46V22.4516C6.92164 22.4116 8.13664 22.5466 9.30164 23.02C9.64331 24.7233 10.1616 26.2416 10.7916 27.605C9.48831 27.7866 8.31997 28.2033 7.31164 28.72C4.42497 27.2433 3.03831 24.36 2.53664 23.0133V23.015ZM5.02497 32.435C6.04664 31.415 8.45497 29.4216 11.6283 29.2083C12.22 30.2083 12.8766 31.1 13.5833 31.8733C12.6016 32.9333 11.835 34.0116 11.2866 34.9866C8.46997 34.9033 6.09164 33.2933 5.02497 32.435ZM11.6916 38.125C12.0683 37.0416 12.965 34.9916 14.7616 33.035C16.335 34.4033 18.045 35.2583 19.675 35.6233C17.855 39.0116 13.5016 38.5066 11.6916 38.125ZM38.3283 10.3416C39.7066 15.05 38.8883 21.5566 31.9916 21.1533C31.255 16.55 36.1883 10.9 38.3283 10.3416ZM29.315 2.26831C34.225 4.78998 38.35 9.04831 31.815 13.515C27.8866 9.09998 28.745 4.20831 29.315 2.26831ZM21.3283 35.6316C22.9616 35.2733 24.6766 34.4216 26.2533 33.05C28.04 35.0016 28.9333 37.045 29.31 38.125C27.4933 38.5083 23.1483 39.01 21.3283 35.6316ZM35.9733 32.4366C34.905 33.2966 32.5266 34.9033 29.7116 34.985C29.165 34.015 28.4033 32.9416 27.4283 31.8866C28.1366 31.11 28.7933 30.215 29.3866 29.2083C32.5383 29.4283 34.9466 31.4183 35.9733 32.4366ZM33.6866 28.72C32.6816 28.2066 31.5183 27.79 30.22 27.6083C30.8483 26.2433 31.365 24.7233 31.7033 23.0183C32.8666 22.5466 34.0783 22.4133 35.1883 22.4516V22.46C36.5316 22.4833 37.7516 22.8 38.4633 23.015C37.9616 24.3616 36.5733 27.2433 33.6866 28.72Z" fill="url(#paint1_linear_50_116)"/>
<path d="M16.3333 21.6667C16.22 18.9317 21.5366 20.3183 23 20C25.3933 19.94 24.5133 23.595 24.6666 25H26.3333C27.1616 17.8667 23.7983 18.1067 18 18.3333C14.405 18.275 14.52 22.4517 14.6666 25H16.3333V21.6667Z" fill="url(#paint2_linear_50_116)"/>
</g>
<defs>
<linearGradient id="paint0_linear_50_116" x1="17.2575" y1="9.99963" x2="24.8573" y2="11.7082" gradientUnits="userSpaceOnUse">
<stop offset="0.0154944" stop-color="#AE8625"/>
<stop offset="0.329993" stop-color="#F7EF8A"/>
<stop offset="0.664996" stop-color="#D2AC47"/>
<stop offset="1" stop-color="#EDC967"/>
</linearGradient>
<linearGradient id="paint1_linear_50_116" x1="0.513306" y1="-0.0250244" x2="47.2438" y2="10.7452" gradientUnits="userSpaceOnUse">
<stop offset="0.0154944" stop-color="#AE8625"/>
<stop offset="0.329993" stop-color="#F7EF8A"/>
<stop offset="0.664996" stop-color="#D2AC47"/>
<stop offset="1" stop-color="#EDC967"/>
</linearGradient>
<linearGradient id="paint2_linear_50_116" x1="14.6117" y1="18.2527" x2="27.1338" y2="23.3342" gradientUnits="userSpaceOnUse">
<stop offset="0.0154944" stop-color="#AE8625"/>
<stop offset="0.329993" stop-color="#F7EF8A"/>
<stop offset="0.664996" stop-color="#D2AC47"/>
<stop offset="1" stop-color="#EDC967"/>
</linearGradient>
<clipPath id="clip0_50_116">
<rect width="40" height="40" fill="white" transform="translate(0.5)"/>
</clipPath>
</defs>
</svg>
