<svg width="31" height="40" viewBox="0 0 31 40" fill="none" xmlns="http://www.w3.org/2000/svg">
<path d="M25.49 3.81004C22.31 0.968377 18.04 -0.381623 13.76 0.0983775C7.00667 0.861711 1.48334 6.30338 0.625004 13.0367C0.0016703 17.9217 1.69834 22.6367 5.28 25.9717C7.57167 28.1034 8.83334 30.805 8.83334 33.5817V40H22.1667V33.8584C22.1667 30.8317 23.34 28.0667 25.3867 26.2717C28.6367 23.425 30.5 19.3167 30.5 15C30.5 10.7334 28.6733 6.65504 25.49 3.81004ZM18.8333 36.6667H12.1667V33.5817C12.1667 33.4984 12.155 33.4167 12.1533 33.3334H18.86C18.8533 33.5084 18.8333 33.6817 18.8333 33.8584V36.6667ZM23.1883 23.765C21.3467 25.38 20.0417 27.555 19.3667 30H11.6317C10.93 27.6167 9.55167 25.3917 7.55167 23.5317C4.76667 20.9384 3.44667 17.2667 3.93334 13.46C4.59834 8.23004 8.89 4.00504 14.135 3.41171C17.5133 3.03338 20.7583 4.05504 23.2683 6.29671C25.745 8.51004 27.1667 11.6817 27.1667 15C27.1667 18.355 25.7167 21.55 23.1883 23.765ZM21.89 9.39504L19.4967 10.7734C18.845 10.1567 18.0483 9.70338 17.1667 9.43838V6.66671H13.8333V9.43838C12.9517 9.70338 12.155 10.1567 11.5033 10.7734L9.11 9.39504L7.44667 12.2834L9.83667 13.66C9.735 14.0917 9.66667 14.5367 9.66667 14.9984C9.66667 15.46 9.735 15.905 9.83667 16.3367L7.44667 17.7134L9.11 20.6017L11.5033 19.2234C12.155 19.84 12.9517 20.2934 13.8333 20.5584V23.33H17.1667V20.5584C18.0483 20.2934 18.845 19.84 19.4967 19.2234L21.89 20.6017L23.5533 17.7134L21.1633 16.3367C21.265 15.905 21.3333 15.46 21.3333 14.9984C21.3333 14.5367 21.265 14.0917 21.1633 13.66L23.5533 12.2834L21.89 9.39504ZM15.5 17.4984C14.1217 17.4984 13 16.3767 13 14.9984C13 13.62 14.1217 12.4984 15.5 12.4984C16.8783 12.4984 18 13.62 18 14.9984C18 16.3767 16.8783 17.4984 15.5 17.4984Z" fill="url(#paint0_linear_50_108)"/>
<defs>
<linearGradient id="paint0_linear_50_108" x1="0.498322" y1="0.00317383" x2="36.3567" y2="6.22021" gradientUnits="userSpaceOnUse">
<stop offset="0.0154944" stop-color="#AE8625"/>
<stop offset="0.329993" stop-color="#F7EF8A"/>
<stop offset="0.664996" stop-color="#D2AC47"/>
<stop offset="1" stop-color="#EDC967"/>
</linearGradient>
</defs>
</svg>
