<svg width="40" height="40" viewBox="0 0 40 40" fill="none" xmlns="http://www.w3.org/2000/svg">
<path d="M33.6833 3.33333H21.6667V0H18.3333V3.33333H6.31667L0 21.3833V22.5C0 26.635 3.365 30 7.5 30C11.635 30 15 26.635 15 22.5V21.3833L9.84833 6.66667H18.3333V36.6667H6.66667V40H33.3333V36.6667H21.6667V6.66667H30.1517L25 21.3833V22.5C25 26.635 28.365 30 32.5 30C36.635 30 40 26.635 40 22.5V21.3833L33.6833 3.33333ZM7.5 26.6667C5.48667 26.6667 3.805 25.2333 3.41833 23.3333H11.5817C11.195 25.2333 9.51167 26.6667 7.5 26.6667ZM10.985 20H4.015L7.5 10.045L10.985 20ZM32.5 10.045L35.985 20H29.0167L32.5 10.045ZM32.5 26.6667C30.4867 26.6667 28.805 25.2333 28.4183 23.3333H36.5833C36.1967 25.2333 34.5117 26.6667 32.5 26.6667Z" fill="url(#paint0_linear_50_67)"/>
<defs>
<linearGradient id="paint0_linear_50_67" x1="0" y1="0" x2="46.748" y2="10.8053" gradientUnits="userSpaceOnUse">
<stop offset="0.0154944" stop-color="#AE8625"/>
<stop offset="0.329993" stop-color="#F7EF8A"/>
<stop offset="0.664996" stop-color="#D2AC47"/>
<stop offset="1" stop-color="#EDC967"/>
</linearGradient>
</defs>
</svg>
