<svg width="41" height="40" viewBox="0 0 41 40" fill="none" xmlns="http://www.w3.org/2000/svg">
<path d="M12.6567 7.49004C12.2117 7.11338 12.05 6.50004 12.2517 5.95338C12.4517 5.40671 12.9717 5.04338 13.555 5.04338H17.7233L19.1983 0.905042C19.4 0.361709 19.92 0.00170898 20.5 0.00170898C21.08 0.00170898 21.6 0.361709 21.8017 0.905042L23.2767 5.04338H27.445C28.0283 5.04338 28.55 5.40838 28.75 5.95671C28.95 6.50504 28.7867 7.12004 28.34 7.49504L25.055 10.1717L26.4133 14.3117C26.6 14.8717 26.41 15.4884 25.9433 15.8484C25.475 16.2084 24.8317 16.2334 24.3367 15.9117L20.5117 13.42L16.75 15.9367C16.5167 16.0934 16.2467 16.1717 15.9767 16.1717C15.6833 16.1717 15.39 16.0784 15.1433 15.895C14.6717 15.5417 14.475 14.9284 14.6517 14.3667L15.9583 10.1784L12.6567 7.49004ZM35.5 5.00004C32.7433 5.00004 30.5 7.24338 30.5 10V18.64C30.0567 18.4834 29.5967 18.3667 29.1133 18.34C27.7917 18.27 26.5017 18.7167 25.4917 19.6217L20.4767 24.2367C20.3383 24.0967 20.21 23.95 20.065 23.815L15.4917 19.6067C14.4967 18.7167 13.2017 18.2717 11.8867 18.34C11.4033 18.3667 10.9433 18.4834 10.5 18.64V10C10.5 7.24338 8.25667 5.00004 5.5 5.00004C2.74333 5.00004 0.5 7.24338 0.5 10V26.835C0.5 30.3967 1.88667 33.745 4.405 36.2634L7.655 39.5134C7.98 39.8384 8.40667 40.0017 8.83333 40.0017C9.26 40.0017 9.68667 39.8384 10.0117 39.5134C10.6633 38.8617 10.6633 37.8067 10.0117 37.1567L6.76167 33.9067C4.87333 32.0184 3.83333 29.5067 3.83333 26.835V10C3.83333 9.08171 4.58 8.33338 5.5 8.33338C6.42 8.33338 7.16667 9.08171 7.16667 10C7.16667 10 7.15833 23.46 7.16667 23.5267C7.21667 24.6184 7.64167 25.7084 8.41 26.6217L12.77 31.1567C13.4083 31.8184 14.4617 31.8417 15.1267 31.2017C15.7883 30.5634 15.81 29.5084 15.1717 28.845L10.8867 24.395C10.36 23.7667 10.375 22.8317 10.9233 22.22C11.2183 21.89 11.625 21.695 12.0683 21.67C12.5067 21.64 12.9367 21.795 13.2517 22.0767L17.8067 26.27C19.5167 27.8434 20.4983 30.08 20.4983 32.4034V38.335C20.4983 39.255 21.2433 40.0017 22.165 40.0017C23.0867 40.0017 23.8317 39.255 23.8317 38.335V32.4034C23.8317 30.4834 23.3417 28.6117 22.4583 26.9434L27.73 22.0917C28.06 21.795 28.4867 21.64 28.93 21.67C29.3733 21.695 29.78 21.89 30.075 22.22C30.3417 22.5167 30.4767 22.89 30.5 23.2584V23.3334C30.5 23.3334 30.5 23.335 30.5 23.3367C30.505 23.6984 30.4033 24.0484 30.1867 24.31L25.965 28.7C25.3267 29.3634 25.3483 30.4184 26.01 31.0567C26.3333 31.3684 26.7483 31.5217 27.165 31.5217C27.6033 31.5217 28.0383 31.35 28.3667 31.01L32.6633 26.535C33.4133 25.6417 33.8067 24.5434 33.8317 23.44C33.835 23.4017 33.8317 9.99838 33.8317 9.99838C33.8317 9.08004 34.5783 8.33171 35.4983 8.33171C36.4183 8.33171 37.165 9.08004 37.165 9.99838V26.8334C37.165 29.505 36.125 32.015 34.2367 33.905L30.9867 37.155C30.335 37.805 30.335 38.86 30.9867 39.5117C31.3117 39.8367 31.7383 40 32.165 40C32.5917 40 33.0183 39.8367 33.3433 39.5117L36.5933 36.2617C39.1117 33.7434 40.4983 30.395 40.4983 26.8334V10C40.4983 7.24338 38.2567 5.00004 35.5 5.00004Z" fill="url(#paint0_linear_50_114)"/>
<defs>
<linearGradient id="paint0_linear_50_114" x1="0.5" y1="0.00170898" x2="47.2463" y2="10.8062" gradientUnits="userSpaceOnUse">
<stop offset="0.0154944" stop-color="#AE8625"/>
<stop offset="0.329993" stop-color="#F7EF8A"/>
<stop offset="0.664996" stop-color="#D2AC47"/>
<stop offset="1" stop-color="#EDC967"/>
</linearGradient>
</defs>
</svg>
