<svg width="40" height="40" viewBox="0 0 40 40" fill="none" xmlns="http://www.w3.org/2000/svg">
<path d="M32.3333 30C32.3333 31.2867 31.2867 32.3333 30 32.3333C28.7133 32.3333 27.6667 31.2867 27.6667 30C27.6667 28.7133 28.7133 27.6667 30 27.6667C31.2867 27.6667 32.3333 28.7133 32.3333 30ZM40 30C40 35.5233 35.5233 40 30 40C24.4767 40 20 35.5233 20 30C20 24.4767 24.4767 20 30 20C35.5233 20 40 24.4767 40 30ZM34.3333 27.5517L36.36 25.525L34.4733 23.64L32.4467 25.6667C31.72 25.255 30.8933 25 29.9983 25C29.1033 25 28.2767 25.255 27.55 25.6667L25.5233 23.64L23.6367 25.525L25.6633 27.5517C25.2517 28.2783 24.9967 29.105 24.9967 30C24.9967 30.895 25.2517 31.7217 25.6633 32.4483L23.6367 34.475L25.5233 36.36L27.55 34.3333C28.2767 34.745 29.1033 35 29.9983 35C30.8933 35 31.72 34.745 32.4467 34.3333L34.4733 36.36L36.36 34.475L34.3333 32.4483C34.745 31.7217 35 30.895 35 30C35 29.105 34.745 28.2783 34.3333 27.5517ZM36.6667 0H28.3333V3.33333H34.31L25.8333 11.81L15.8333 1.81L0.2 17.4433L2.55667 19.8L15.8333 6.52333L25.8333 16.5233L36.6667 5.69V11.6667H40V3.33333C40 1.495 38.505 0 36.6667 0ZM0 40H3.33333V23.62L0 26.9533V40ZM8.33333 40H11.6667V15.2867L8.33333 18.62V40ZM20 15.1383L16.6667 11.805V30C16.6667 26.6233 17.9317 23.55 20 21.2017V15.1383ZM16.6667 40H20V38.7983C17.9317 36.45 16.6667 33.375 16.6667 30V40Z" fill="url(#paint0_linear_50_64)"/>
<defs>
<linearGradient id="paint0_linear_50_64" x1="0" y1="0" x2="46.748" y2="10.8053" gradientUnits="userSpaceOnUse">
<stop offset="0.0154944" stop-color="#AE8625"/>
<stop offset="0.329993" stop-color="#F7EF8A"/>
<stop offset="0.664996" stop-color="#D2AC47"/>
<stop offset="1" stop-color="#EDC967"/>
</linearGradient>
</defs>
</svg>
